<svg width="222" height="161" viewBox="0 0 222 161" fill="none" xmlns="http://www.w3.org/2000/svg">
<g filter="url(#filter0_i_57_126)">
<g filter="url(#filter1_i_57_126)">
<path fill-rule="evenodd" clip-rule="evenodd" d="M207.542 78.2993L183.113 72.854L164.491 92.5453C164.491 92.5453 185.822 102.227 199.451 99.4256C203.561 98.581 209.648 96.0516 209.648 96.0516C209.648 96.0516 214.733 93.5282 215.345 90.4766C215.815 88.1331 214.861 86.5969 213.67 84.683C213.499 84.4063 213.321 84.1218 213.143 83.8257C211.559 81.1935 210.195 79.8492 207.542 78.2993ZM210.462 132.681C204.943 133.692 196.164 131.262 196.164 131.262L175.134 124.692L194.123 106.109L208.588 109.932C208.588 109.932 221.001 114.503 221.107 119.271C221.212 124.039 219.519 125.867 219.519 125.867C219.519 125.867 213.519 131.669 211.819 132.231C210.833 132.558 211.462 132.486 211.623 132.468C211.646 132.466 211.659 132.465 211.659 132.465C211.659 132.465 211.649 132.467 211.628 132.471C211.608 132.474 211.579 132.479 211.537 132.487C211.383 132.514 211.061 132.571 210.462 132.681ZM112.728 69.0862C112.728 69.0862 90.1567 54.2121 80.5917 40.3626C77.4605 35.8294 74.8387 30.5765 72.4855 25.8621C69.7402 20.3622 67.3605 15.5951 64.9642 13.5549C63.2353 12.0844 62.1361 10.6024 61.1284 9.24391C59.542 7.10489 58.1825 5.27216 54.9505 4.27099C52.3079 3.45095 50.5708 3.13807 48.8334 2.8252C47.0963 2.51234 45.3591 2.19947 42.7166 1.38108C38.2463 -0.00541619 34.1478 1.47165 30.5597 2.76428C29.9056 2.99976 29.2687 3.22864 28.6494 3.43283C24.6327 4.76333 17.2923 8.22298 13.0315 14.752C9.96186 19.4549 9.59984 23.3427 9.13949 28.2827C9.026 29.5028 8.90643 30.7856 8.73876 32.1606C8.33918 35.4391 8.8165 38.2015 9.2757 40.8589C9.88116 44.363 10.4553 47.6853 8.94596 51.7712C8.78784 52.199 8.63845 52.6141 8.49335 53.0176C7.28358 56.3802 6.36946 58.921 3.21732 61.0464C0.898921 62.6096 0.823486 63.9105 0.823486 63.9105V76.5978C0.823486 76.5978 8.18551 72.7898 10.7997 70.0482C11.2637 69.5616 11.8706 69.0201 12.5575 68.4072C15.7396 65.5673 20.6374 61.1964 20.9909 53.667C21.2473 48.2034 21.0059 45.1324 20.6521 40.6322C20.5635 39.5049 20.4678 38.2878 20.3711 36.9211C19.9378 30.7922 20.2942 26.035 22.7649 21.37C25.2359 16.705 32.9464 14.1526 43.1578 14.6219C52.15 15.0336 55.2311 19.2128 55.8387 20.2041C55.9237 20.3424 55.986 20.4824 56.0486 20.6323C56.8222 22.4864 62.355 35.6778 65.2195 40.5296L73.1177 53.9051C73.1177 53.9051 80.569 62.9429 86.0005 68.0912C94.3017 75.9594 109.421 85.6776 109.421 85.6776L112.728 69.0862Z" fill="#004AAA"/>
<path d="M139.566 100.793L157.916 156.218L170.313 159.495L196.164 131.262L175.134 124.692L194.123 106.109L208.588 109.932L212.585 104.92L209.648 96.0516C209.648 96.0516 203.561 98.581 199.451 99.4256C185.822 102.227 164.491 92.5454 164.491 92.5454L183.112 72.854L207.542 78.2994L195.432 41.719L184.534 39.1757L144.258 80.7916L139.566 100.793Z" fill="#9A0000"/>
<path d="M144.258 80.7916L184.534 39.1758L151.3 28.0341L112.728 69.0863L144.258 80.7916Z" fill="#F3A323"/>
<path d="M139.566 100.793L144.258 80.7916L112.728 69.0862L109.421 85.6776L108.004 92.7882L139.566 100.793Z" fill="#FFC44D"/>
<path d="M157.916 156.218L139.566 100.793L108.004 92.7882L125.62 145.996L157.916 156.218Z" fill="#F3A323"/>
<path d="M157.916 156.218L157.667 157.003L157.685 157.009L157.705 157.014L157.916 156.218ZM195.433 41.719L196.213 41.4603L196.068 41.0221L195.619 40.9172L195.433 41.719ZM183.113 72.854L183.292 72.0504L182.836 71.9487L182.515 72.2884L183.113 72.854ZM164.491 92.5453L163.893 91.9797L163.099 92.8182L164.15 93.2951L164.491 92.5453ZM199.451 99.4256L199.287 98.6191L199.451 99.4256ZM215.346 90.4766L214.538 90.3146L215.346 90.4766ZM213.143 83.8257L212.438 84.2502V84.2504L213.143 83.8257ZM170.313 159.495L170.104 160.291L170.585 160.418L170.921 160.051L170.313 159.495ZM175.134 124.692L174.558 124.103L173.573 125.067L174.887 125.478L175.134 124.692ZM194.123 106.109L194.332 105.313L193.881 105.193L193.547 105.521L194.123 106.109ZM219.519 125.867L220.092 126.459L220.109 126.443L220.124 126.427L219.519 125.867ZM210.462 132.681L210.61 133.49L210.462 132.681ZM212.585 104.92L213.229 105.433L213.506 105.084L213.366 104.661L212.585 104.92ZM151.3 28.034L151.562 27.2535L151.061 27.0855L150.698 27.4709L151.3 28.034ZM108.004 92.7882L107.197 92.6273L107.154 92.8406L107.223 93.0469L108.004 92.7882ZM125.62 145.996L124.838 146.255L124.97 146.654L125.371 146.781L125.62 145.996ZM80.5917 40.3626L79.9141 40.8304L80.5917 40.3626ZM64.9643 13.5549L64.4305 14.1823L64.9643 13.5549ZM42.7166 1.38108L42.4729 2.16655L42.7166 1.38108ZM28.6494 3.43283L28.3907 2.65231L28.6494 3.43283ZM13.0315 14.752L12.3419 14.3008L13.0315 14.752ZM8.7388 32.1606L7.92136 32.0618L8.7388 32.1606ZM8.946 51.7712L8.17337 51.486L8.946 51.7712ZM3.21736 61.0464L2.75685 60.3639L3.21736 61.0464ZM0.823529 63.9105L0.00131787 63.8627L0 63.8866V63.9105H0.823529ZM0.823529 76.5979H0V77.9508L1.20186 77.329L0.823529 76.5979ZM10.7998 70.0482L10.2037 69.4801L10.7998 70.0482ZM20.9909 53.667L21.8135 53.7057L20.9909 53.667ZM20.3712 36.9211L21.1927 36.8635L20.3712 36.9211ZM43.1579 14.6219L43.1956 13.7986L43.1579 14.6219ZM65.2196 40.5296L64.5105 40.9482L65.2196 40.5296ZM73.1177 53.9051L72.4085 54.3237L72.4413 54.3792L72.4823 54.4288L73.1177 53.9051ZM86.0005 68.0912L86.5671 67.4936L86.0005 68.0912ZM54.9505 4.27099L55.1943 3.48387L54.9505 4.27099ZM55.8388 20.2041L55.1364 20.6339L55.8388 20.2041ZM72.4856 25.8621L71.7487 26.2293L72.4856 25.8621ZM61.1284 9.24392L60.467 9.73462L61.1284 9.24392ZM30.5597 2.76429L30.8389 3.53822L30.5597 2.76429ZM9.13953 28.2827L9.9596 28.3601L9.13953 28.2827ZM9.27574 40.8589L8.46424 40.9991L9.27574 40.8589ZM8.49339 53.0176L9.26833 53.2962L8.49339 53.0176ZM12.5575 68.4072L12.009 67.793L12.5575 68.4072ZM20.6521 40.6322L21.4732 40.5676L20.6521 40.6322ZM211.659 132.465L211.854 133.264L211.597 131.644L211.659 132.465ZM213.67 84.683L212.97 85.1177L213.67 84.683ZM211.623 132.468L211.531 131.65L211.623 132.468ZM211.538 132.487L211.394 131.676L211.538 132.487ZM211.628 132.471L211.482 131.661L211.628 132.471ZM55.8419 20.2091L56.5449 19.7809L55.8419 20.2091ZM158.698 155.959L140.348 100.534L138.785 101.052L157.134 156.477L158.698 155.959ZM140.368 100.981L145.06 80.9796L143.457 80.6035L138.765 100.605L140.368 100.981ZM144.85 81.3641L185.125 39.7483L183.943 38.6032L143.666 80.219L144.85 81.3641ZM184.346 39.9775L195.245 42.5208L195.619 40.9172L184.722 38.3739L184.346 39.9775ZM195.433 41.719C194.65 41.9777 194.65 41.9778 194.65 41.978C194.65 41.9782 194.65 41.9785 194.65 41.9788C194.65 41.9792 194.65 41.9795 194.652 41.98C194.652 41.9805 194.652 41.9811 194.652 41.9818C194.652 41.9825 194.652 41.9833 194.652 41.9841C194.654 41.9849 194.654 41.9859 194.654 41.9869C194.654 41.9879 194.654 41.989 194.655 41.9902C194.655 41.9913 194.655 41.9927 194.655 41.994C194.657 41.9953 194.657 41.9968 194.657 41.9983C194.657 41.9997 194.658 42.0014 194.658 42.003C194.658 42.0047 194.66 42.0065 194.66 42.0083C194.662 42.0101 194.662 42.0121 194.662 42.0141C194.663 42.016 194.663 42.0182 194.665 42.0203C194.665 42.0226 194.667 42.0248 194.667 42.0271C194.667 42.0295 194.668 42.0319 194.668 42.0343C194.67 42.037 194.67 42.0394 194.672 42.0422C194.673 42.0449 194.673 42.0475 194.675 42.0505C194.675 42.0533 194.677 42.0561 194.677 42.0592C194.678 42.0621 194.68 42.0651 194.68 42.0682C194.682 42.0715 194.683 42.0747 194.683 42.078C194.685 42.0812 194.686 42.0847 194.686 42.0882C194.688 42.0916 194.69 42.0952 194.69 42.0989C194.691 42.1025 194.693 42.1061 194.695 42.1099C194.695 42.1137 194.696 42.1176 194.698 42.1216C194.7 42.1255 194.701 42.1297 194.701 42.1336C194.703 42.1377 194.705 42.142 194.706 42.1463C194.708 42.1506 194.71 42.1549 194.711 42.1593C194.711 42.1637 194.713 42.1682 194.714 42.1728C194.716 42.1774 194.718 42.182 194.719 42.1868C194.721 42.1916 194.723 42.1964 194.724 42.2013C194.726 42.2062 194.728 42.2112 194.729 42.2163C194.731 42.2212 194.733 42.2265 194.734 42.2316C194.736 42.2369 194.738 42.2421 194.739 42.2476C194.741 42.2528 194.742 42.2583 194.746 42.2639C194.747 42.2693 194.749 42.2749 194.751 42.2807C194.752 42.2863 194.754 42.292 194.756 42.298C194.759 42.3037 194.761 42.3096 194.762 42.3156C194.764 42.3217 194.766 42.3276 194.769 42.3339C194.77 42.3399 194.772 42.3462 194.774 42.3525C194.777 42.3587 194.779 42.3651 194.78 42.3716C194.784 42.378 194.785 42.3846 194.787 42.3912C194.789 42.3977 194.792 42.4043 194.794 42.4111C194.797 42.4178 194.798 42.4248 194.8 42.4315C194.803 42.4384 194.805 42.4455 194.807 42.4524C194.81 42.4595 194.812 42.4666 194.815 42.4738C194.817 42.4811 194.82 42.4883 194.822 42.4957C194.825 42.503 194.826 42.5104 194.83 42.5179C194.831 42.5254 194.835 42.5329 194.836 42.5407C194.84 42.5483 194.841 42.556 194.845 42.5637C194.846 42.5716 194.85 42.5795 194.853 42.5874C194.854 42.5953 194.858 42.6034 194.859 42.6115C194.863 42.6196 194.866 42.6276 194.868 42.6359C194.871 42.6441 194.874 42.6525 194.876 42.6609C194.879 42.6693 194.882 42.6777 194.884 42.6862C194.887 42.6948 194.891 42.7034 194.894 42.7119C194.896 42.7207 194.899 42.7294 194.902 42.7383C194.906 42.747 194.907 42.7559 194.91 42.765C194.914 42.7738 194.917 42.7829 194.92 42.792C194.924 42.8012 194.925 42.8102 194.929 42.8196C194.932 42.8288 194.935 42.8381 194.938 42.8474C194.942 42.8568 194.945 42.8664 194.948 42.8759C194.952 42.8855 194.953 42.895 194.957 42.9048C194.96 42.9145 194.963 42.9242 194.966 42.9339C194.97 42.9438 194.973 42.9537 194.976 42.9637C194.98 42.9736 194.983 42.9836 194.986 42.9937C194.99 43.0039 194.993 43.0141 194.996 43.0243C194.999 43.0345 195.004 43.0449 195.008 43.0553C195.011 43.0656 195.014 43.076 195.018 43.0865C195.021 43.0971 195.024 43.1076 195.027 43.1183C195.031 43.129 195.036 43.1397 195.039 43.1506C195.042 43.1613 195.046 43.1722 195.049 43.1832C195.054 43.1941 195.057 43.2051 195.06 43.2161C195.064 43.2272 195.067 43.2384 195.072 43.2496C195.075 43.2608 195.078 43.2721 195.083 43.2835C195.087 43.2948 195.09 43.3062 195.093 43.3177C195.098 43.3291 195.102 43.3408 195.105 43.3523C195.11 43.364 195.113 43.3757 195.116 43.3874C195.121 43.3992 195.125 43.4109 195.13 43.423C195.133 43.4348 195.136 43.4468 195.141 43.4588C195.144 43.4709 195.149 43.4829 195.153 43.4951C195.156 43.5073 195.161 43.5195 195.164 43.5318C195.169 43.544 195.172 43.5565 195.177 43.5689C195.181 43.5814 195.186 43.5937 195.189 43.6064C195.194 43.6189 195.197 43.6316 195.202 43.6443C195.207 43.6569 195.21 43.6696 195.215 43.6825C195.218 43.6953 195.223 43.7082 195.227 43.7212C195.232 43.7342 195.237 43.7472 195.24 43.7602C195.245 43.7734 195.25 43.7865 195.253 43.7997C195.258 43.8129 195.263 43.8262 195.266 43.8396C195.271 43.8529 195.276 43.8664 195.279 43.8799C195.284 43.8932 195.289 43.9069 195.294 43.9204C195.298 43.9341 195.302 43.9478 195.307 43.9614C195.312 43.9753 195.316 43.9891 195.321 44.0029C195.326 44.0167 195.33 44.0307 195.335 44.0447C195.339 44.0587 195.344 44.0727 195.349 44.0869C195.354 44.1011 195.358 44.1152 195.363 44.1294C195.367 44.1437 195.372 44.158 195.377 44.1724C195.382 44.1867 195.386 44.2012 195.391 44.2157C195.396 44.2302 195.401 44.2446 195.406 44.2593C195.411 44.2739 195.416 44.2886 195.421 44.3034C195.424 44.3181 195.429 44.3329 195.434 44.3479C195.439 44.3627 195.444 44.3777 195.449 44.3927C195.454 44.4077 195.461 44.4228 195.466 44.4378C195.47 44.453 195.475 44.4681 195.48 44.4834C195.485 44.4987 195.49 44.514 195.495 44.5293C195.5 44.5447 195.505 44.5601 195.51 44.5756C195.515 44.5911 195.52 44.6067 195.526 44.6224C195.531 44.6379 195.536 44.6537 195.541 44.6693C195.546 44.6851 195.551 44.7009 195.558 44.7167C195.563 44.7325 195.568 44.7485 195.573 44.7645C195.578 44.7805 195.584 44.7964 195.589 44.8126C195.594 44.8287 195.599 44.8448 195.606 44.8612C195.61 44.8773 195.615 44.8936 195.62 44.9099C195.627 44.9262 195.632 44.9427 195.637 44.9591C195.643 44.9756 195.648 44.9921 195.653 45.0087C195.66 45.0252 195.665 45.0418 195.67 45.0586C195.676 45.0752 195.681 45.092 195.686 45.1088C195.693 45.1256 195.698 45.1424 195.704 45.1594C195.709 45.1763 195.714 45.1933 195.721 45.2104C195.726 45.2274 195.732 45.2445 195.737 45.2616C195.744 45.2789 195.749 45.296 195.755 45.3133C195.76 45.3306 195.765 45.3479 195.772 45.3654C195.777 45.3827 195.783 45.4001 195.788 45.4177C195.795 45.4352 195.802 45.4528 195.806 45.4704C195.813 45.488 195.818 45.5057 195.825 45.5234C195.83 45.5411 195.836 45.5588 195.841 45.5768C195.848 45.5946 195.854 45.6125 195.859 45.6305C195.866 45.6484 195.871 45.6665 195.877 45.6845C195.884 45.7026 195.889 45.7207 195.895 45.739C195.902 45.7571 195.907 45.7754 195.914 45.7937C195.92 45.8119 195.925 45.8302 195.932 45.8487C195.938 45.8671 195.945 45.8855 195.95 45.9041C195.956 45.9226 195.963 45.9412 195.968 45.9598C195.974 45.9784 195.981 45.9972 195.988 46.0158C195.993 46.0346 195.999 46.0533 196.006 46.0723C196.012 46.0911 196.019 46.11 196.024 46.1289C196.03 46.1479 196.037 46.167 196.044 46.1861C196.05 46.205 196.057 46.2241 196.062 46.2434C196.068 46.2625 196.075 46.2817 196.082 46.301C196.088 46.3203 196.095 46.3397 196.101 46.359C196.108 46.3784 196.114 46.3978 196.119 46.4174C196.126 46.4368 196.133 46.4565 196.139 46.476C196.146 46.4956 196.152 46.5152 196.159 46.535C196.166 46.5546 196.172 46.5744 196.179 46.5943C196.185 46.614 196.192 46.634 196.198 46.6539C196.205 46.6738 196.212 46.6937 196.218 46.7138C196.225 46.7337 196.231 46.7538 196.238 46.7739C196.245 46.794 196.251 46.8143 196.258 46.8345C196.264 46.8548 196.271 46.875 196.279 46.8953C196.286 46.9157 196.292 46.9361 196.299 46.9565C196.306 46.977 196.312 46.9974 196.319 47.018C196.325 47.0385 196.332 47.0591 196.34 47.0797C196.347 47.1003 196.353 47.121 196.36 47.1418C196.366 47.1625 196.373 47.1833 196.381 47.2042C196.388 47.2249 196.394 47.2459 196.401 47.2668C196.408 47.2877 196.416 47.3088 196.422 47.3298C196.429 47.3507 196.436 47.3718 196.444 47.3931C196.45 47.4142 196.457 47.4354 196.464 47.4566C196.472 47.4779 196.478 47.4991 196.485 47.5205C196.492 47.5418 196.5 47.5632 196.506 47.5846C196.513 47.6061 196.521 47.6276 196.528 47.6491C196.534 47.6707 196.543 47.6923 196.549 47.7138C196.556 47.7354 196.564 47.7572 196.571 47.7789C196.577 47.8006 196.586 47.8224 196.592 47.8443C196.6 47.866 196.607 47.8879 196.614 47.9098C196.622 47.9317 196.628 47.9538 196.637 47.9757C196.643 47.9977 196.651 48.0198 196.658 48.0419C196.665 48.0639 196.673 48.0861 196.679 48.1084C196.688 48.1306 196.694 48.1528 196.702 48.1751C196.709 48.1975 196.717 48.2197 196.724 48.2421C196.732 48.2645 196.739 48.287 196.747 48.3094C196.754 48.332 196.762 48.3546 196.768 48.3771C196.777 48.3997 196.783 48.4222 196.791 48.445C196.8 48.4675 196.806 48.4902 196.814 48.5131C196.821 48.5359 196.829 48.5586 196.836 48.5815C196.844 48.6044 196.852 48.6272 196.859 48.6501C196.867 48.6732 196.874 48.6961 196.882 48.7191C196.89 48.7422 196.897 48.7652 196.905 48.7885C196.913 48.8115 196.92 48.8347 196.928 48.8579C196.936 48.8812 196.943 48.9044 196.951 48.9276C196.959 48.951 196.966 48.9744 196.974 48.9977C196.982 49.0211 196.989 49.0445 196.997 49.0681C197.006 49.0914 197.014 49.115 197.02 49.1385C197.029 49.1621 197.037 49.1858 197.045 49.2093C197.052 49.2331 197.06 49.2568 197.068 49.2805C197.076 49.3042 197.083 49.3281 197.091 49.3518C197.099 49.3757 197.108 49.3995 197.116 49.4234C197.122 49.4473 197.131 49.4713 197.139 49.4954C197.147 49.5192 197.155 49.5433 197.164 49.5675C197.17 49.5915 197.178 49.6156 197.187 49.6398C197.195 49.664 197.203 49.6882 197.211 49.7124C197.22 49.7368 197.228 49.761 197.234 49.7853C197.243 49.8097 197.251 49.8341 197.259 49.8585C197.267 49.8828 197.276 49.9074 197.284 49.9319C197.292 49.9563 197.3 49.9808 197.309 50.0055C197.317 50.03 197.325 50.0547 197.332 50.0793C197.34 50.104 197.348 50.1287 197.356 50.1534C197.365 50.1782 197.373 50.2029 197.381 50.2278C197.389 50.2527 197.398 50.2775 197.406 50.3024C197.414 50.3273 197.422 50.3523 197.43 50.3773C197.439 50.4022 197.447 50.4272 197.455 50.4524C197.465 50.4774 197.473 50.5025 197.482 50.5277C197.49 50.5529 197.498 50.578 197.506 50.6032C197.514 50.6284 197.523 50.6536 197.531 50.679C197.539 50.7044 197.547 50.7297 197.556 50.7551C197.564 50.7804 197.574 50.8058 197.582 50.8313C197.59 50.8568 197.598 50.8822 197.607 50.9077C197.615 50.9334 197.623 50.9589 197.631 50.9845C197.641 51.0101 197.65 51.0358 197.658 51.0615C197.666 51.0872 197.674 51.1129 197.682 51.1386C197.692 51.1644 197.701 51.1901 197.709 51.216C197.717 51.2418 197.725 51.2677 197.735 51.2937C197.743 51.3195 197.752 51.3456 197.76 51.3716C197.768 51.3974 197.778 51.4234 197.786 51.4496C197.794 51.4756 197.803 51.5017 197.813 51.5278C197.821 51.554 197.829 51.5802 197.837 51.6064C197.847 51.6326 197.855 51.6588 197.864 51.6851C197.874 51.7115 197.882 51.7376 197.89 51.764C197.898 51.7903 197.908 51.8168 197.916 51.8432C197.925 51.8697 197.934 51.896 197.943 51.9226C197.951 51.9491 197.961 51.9756 197.969 52.0023C197.977 52.0288 197.987 52.0553 197.995 52.082C198.004 52.1086 198.014 52.1353 198.022 52.162C198.03 52.1887 198.04 52.2155 198.048 52.2422C198.058 52.269 198.066 52.2957 198.074 52.3227C198.084 52.3495 198.093 52.3764 198.102 52.4032C198.111 52.4302 198.119 52.4571 198.129 52.4841C198.137 52.5111 198.147 52.5381 198.155 52.5651C198.165 52.5921 198.173 52.6193 198.182 52.6463C198.191 52.6734 198.2 52.7006 198.21 52.7278C198.218 52.755 198.228 52.7821 198.236 52.8095C198.246 52.8366 198.254 52.864 198.264 52.8913C198.272 52.9186 198.282 52.946 198.29 52.9733C198.3 53.0006 198.308 53.0281 198.318 53.0555C198.326 53.083 198.336 53.1105 198.345 53.138C198.354 53.1655 198.363 53.193 198.373 53.2205C198.381 53.2481 198.391 53.2756 198.401 53.3033C198.409 53.3309 198.419 53.3586 198.427 53.3863C198.437 53.4139 198.445 53.4418 198.455 53.4694C198.465 53.4973 198.473 53.5251 198.483 53.5528C198.491 53.5806 198.501 53.6084 198.509 53.6364C198.519 53.6642 198.529 53.6922 198.537 53.7201C198.547 53.7481 198.557 53.776 198.565 53.804C198.575 53.832 198.583 53.86 198.593 53.8882C198.603 53.9162 198.611 53.9443 198.621 53.9723C198.631 54.0005 198.639 54.0286 198.649 54.0568C198.659 54.085 198.667 54.1133 198.677 54.1414C198.687 54.1698 198.695 54.1979 198.705 54.2262C198.715 54.2546 198.723 54.2829 198.733 54.3112C198.743 54.3395 198.753 54.368 198.761 54.3963C198.771 54.4248 198.781 54.4533 198.789 54.4816C198.799 54.5101 198.809 54.5386 198.819 54.5673C198.827 54.5958 198.837 54.6242 198.847 54.6529C198.857 54.6814 198.865 54.71 198.875 54.7387C198.885 54.7673 198.895 54.796 198.903 54.8246C198.913 54.8535 198.923 54.8821 198.933 54.9109C198.941 54.9396 198.951 54.9684 198.961 54.9972C198.97 55.026 198.98 55.0548 198.989 55.0837C198.998 55.1125 199.008 55.1415 199.018 55.1703C199.028 55.1993 199.036 55.2282 199.046 55.2571C199.056 55.286 199.066 55.315 199.076 55.3442C199.086 55.3731 199.094 55.4021 199.104 55.4313C199.114 55.4603 199.124 55.4894 199.134 55.5185C199.143 55.5477 199.152 55.5767 199.162 55.606C199.171 55.6351 199.181 55.6643 199.191 55.6936C199.201 55.7227 199.211 55.752 199.221 55.7812C199.229 55.8105 199.239 55.8398 199.249 55.8691C199.259 55.8984 199.269 55.9277 199.278 55.9572C199.288 55.9865 199.298 56.016 199.308 56.0453C199.318 56.0748 199.328 56.1043 199.336 56.1337C199.346 56.1632 199.356 56.1927 199.366 56.2222C199.376 56.2516 199.386 56.2811 199.395 56.3108C199.405 56.3402 199.415 56.3699 199.425 56.3995C199.435 56.4292 199.445 56.4588 199.455 56.4884C199.465 56.5181 199.474 56.5477 199.484 56.5775C199.494 56.6072 199.504 56.6368 199.514 56.6666C199.524 56.6964 199.534 56.7262 199.544 56.7559C199.552 56.7857 199.562 56.8155 199.572 56.8454C199.582 56.8752 199.591 56.905 199.601 56.935C199.611 56.9648 199.623 56.9948 199.633 57.0246C199.642 57.0546 199.652 57.0845 199.662 57.1145C199.672 57.1445 199.682 57.1744 199.692 57.2044C199.702 57.2345 199.712 57.2645 199.722 57.2946C199.731 57.3246 199.741 57.3547 199.751 57.3849C199.761 57.4148 199.771 57.445 199.781 57.4751C199.791 57.5052 199.801 57.5354 199.81 57.5657C199.82 57.5958 199.83 57.626 199.84 57.6562C199.852 57.6864 199.862 57.7167 199.871 57.747C199.881 57.7773 199.891 57.8074 199.901 57.8377C199.911 57.868 199.921 57.8985 199.931 57.9288C199.941 57.9591 199.95 57.9894 199.962 58.0198C199.972 58.0501 199.982 58.0806 199.992 58.1111C200.002 58.1414 200.011 58.1718 200.021 58.2023C200.031 58.2328 200.041 58.2632 200.053 58.2937C200.062 58.3243 200.072 58.3548 200.082 58.3852C200.092 58.4159 200.102 58.4463 200.112 58.4769C200.123 58.5074 200.133 58.538 200.143 58.5687C200.153 58.5993 200.163 58.6299 200.173 58.6606C200.183 58.6912 200.194 58.7218 200.204 58.7524C200.214 58.7832 200.224 58.8139 200.234 58.8447C200.245 58.8753 200.255 58.9061 200.265 58.9367C200.275 58.9675 200.285 58.9983 200.295 59.0291C200.306 59.0599 200.316 59.0907 200.326 59.1215C200.336 59.1522 200.346 59.183 200.357 59.2138C200.367 59.2448 200.377 59.2756 200.387 59.3065C200.397 59.3373 200.408 59.3683 200.418 59.3991C200.428 59.43 200.438 59.461 200.448 59.492C200.459 59.5229 200.469 59.5539 200.479 59.5848C200.489 59.6158 200.501 59.6467 200.51 59.6777C200.52 59.7088 200.53 59.7398 200.542 59.7707C200.552 59.8019 200.562 59.8328 200.571 59.8639C200.581 59.8951 200.593 59.926 200.603 59.9571C200.613 59.9883 200.622 60.0194 200.634 60.0505C200.644 60.0816 200.654 60.1128 200.664 60.1439C200.675 60.175 200.685 60.2063 200.695 60.2374C200.706 60.2685 200.716 60.2998 200.726 60.3309C200.736 60.3622 200.748 60.3933 200.758 60.4246C200.767 60.4559 200.777 60.487 200.789 60.5183C200.799 60.5496 200.809 60.5809 200.82 60.6122C200.83 60.6435 200.84 60.6747 200.85 60.706C200.861 60.7373 200.871 60.7686 200.881 60.8001C200.893 60.8314 200.902 60.8626 200.912 60.8941C200.924 60.9254 200.934 60.9568 200.944 60.9881C200.955 61.0196 200.965 61.051 200.975 61.0823C200.985 61.1137 200.996 61.1452 201.006 61.1767C201.016 61.2081 201.028 61.2396 201.038 61.271C201.047 61.3025 201.059 61.3339 201.069 61.3654C201.079 61.3968 201.09 61.4283 201.1 61.4599C201.11 61.4913 201.122 61.5228 201.131 61.5544C201.141 61.5859 201.153 61.6175 201.163 61.6489C201.173 61.6805 201.184 61.712 201.194 61.7436C201.204 61.7752 201.215 61.8068 201.225 61.8383C201.235 61.8699 201.247 61.9015 201.257 61.9331C201.266 61.9647 201.278 61.9964 201.288 62.028C201.299 62.0596 201.309 62.0912 201.319 62.1228C201.331 62.1546 201.341 62.1862 201.35 62.2178C201.362 62.2495 201.372 62.2812 201.382 62.3129C201.393 62.3445 201.403 62.3762 201.415 62.4079C201.425 62.4396 201.434 62.4713 201.446 62.503C201.456 62.5348 201.466 62.5664 201.477 62.5982C201.487 62.63 201.499 62.6616 201.509 62.6934C201.518 62.7252 201.53 62.757 201.54 62.7887C201.551 62.8205 201.561 62.8523 201.571 62.8841C201.583 62.9159 201.593 62.9476 201.602 62.9794C201.614 63.0112 201.624 63.043 201.635 63.0748C201.645 63.1066 201.655 63.1385 201.667 63.1703C201.677 63.2021 201.688 63.2338 201.698 63.2658C201.708 63.2976 201.719 63.3293 201.729 63.3613C201.741 63.3931 201.751 63.425 201.761 63.4568C201.772 63.4887 201.782 63.5205 201.794 63.5525C201.803 63.5843 201.813 63.6162 201.825 63.6481C201.835 63.6799 201.846 63.7119 201.856 63.7438C201.866 63.7756 201.878 63.8075 201.887 63.8395C201.899 63.8714 201.909 63.9034 201.92 63.9352C201.93 63.9671 201.94 63.999 201.952 64.031C201.962 64.0629 201.973 64.0949 201.983 64.1268C201.993 64.1588 202.004 64.1907 202.014 64.2227C202.026 64.2546 202.036 64.2865 202.047 64.3185C202.057 64.3504 202.067 64.3824 202.078 64.4143C202.088 64.4463 202.1 64.4784 202.11 64.5103C202.121 64.5423 202.131 64.5742 202.141 64.6062C202.153 64.6381 202.162 64.6702 202.174 64.7022C202.184 64.7341 202.195 64.7661 202.205 64.7982C202.215 64.8301 202.227 64.8621 202.237 64.8942C202.248 64.9261 202.258 64.9581 202.27 64.9902C202.279 65.0221 202.289 65.0541 202.301 65.0862C202.311 65.1181 202.322 65.1502 202.332 65.1822C202.344 65.2143 202.354 65.2462 202.365 65.2782C202.375 65.3103 202.385 65.3422 202.396 65.3743C202.406 65.4063 202.418 65.4384 202.428 65.4703C202.439 65.5025 202.449 65.5344 202.459 65.5665C202.47 65.5985 202.48 65.6306 202.492 65.6625C202.502 65.6946 202.513 65.7266 202.523 65.7587C202.535 65.7906 202.545 65.8227 202.554 65.8547C202.566 65.8868 202.576 65.9189 202.587 65.9508C202.597 65.983 202.609 66.0149 202.619 66.047C202.629 66.079 202.64 66.1111 202.65 66.143C202.662 66.1751 202.671 66.2071 202.683 66.2392C202.693 66.2713 202.704 66.3032 202.714 66.3353C202.724 66.3673 202.736 66.3994 202.746 66.4313C202.757 66.4634 202.767 66.4954 202.778 66.5275C202.788 66.5594 202.798 66.5916 202.81 66.6235C202.82 66.6556 202.831 66.6876 202.841 66.7197C202.853 66.7516 202.862 66.7837 202.874 66.8157C202.884 66.8478 202.894 66.8797 202.905 66.9118C202.915 66.9438 202.927 66.9759 202.937 67.0078C202.948 67.0399 202.958 67.0719 202.968 67.1038C202.979 67.136 202.989 67.1679 203.001 67.2C203.011 67.2319 203.022 67.2639 203.032 67.296C203.044 67.328 203.054 67.3599 203.063 67.392C203.075 67.4239 203.085 67.4559 203.096 67.4878C203.106 67.52 203.118 67.5519 203.128 67.5838C203.138 67.6158 203.149 67.6479 203.159 67.6798C203.17 67.7118 203.18 67.7437 203.192 67.7757C203.202 67.8076 203.212 67.8397 203.223 67.8717C203.233 67.9036 203.245 67.9356 203.254 67.9675C203.264 67.9995 203.276 68.0314 203.286 68.0633C203.297 68.0953 203.307 68.1272 203.319 68.1592C203.329 68.1911 203.338 68.2231 203.35 68.2549C203.36 68.2868 203.371 68.3187 203.381 68.3507C203.393 68.3826 203.403 68.4144 203.413 68.4464C203.424 68.4783 203.434 68.5103 203.446 68.542C203.455 68.574 203.465 68.6059 203.477 68.6377C203.487 68.6696 203.498 68.7014 203.508 68.7334C203.518 68.7652 203.53 68.7971 203.539 68.8289C203.551 68.8608 203.561 68.8926 203.571 68.9246C203.582 68.9563 203.592 68.9881 203.604 69.0201C203.614 69.0518 203.623 69.0836 203.635 69.1154C203.645 69.1473 203.656 69.1791 203.666 69.2109C203.676 69.2427 203.688 69.2745 203.698 69.3062C203.709 69.338 203.719 69.3698 203.729 69.4016C203.74 69.4334 203.75 69.4651 203.76 69.4969C203.772 69.5287 203.782 69.5603 203.793 69.5921C203.803 69.6239 203.813 69.6555 203.824 69.6873C203.834 69.7191 203.846 69.7507 203.856 69.7825C203.866 69.8141 203.877 69.8459 203.887 69.8775C203.897 69.9093 203.908 69.9409 203.918 69.9725C203.928 70.0043 203.94 70.0359 203.95 70.0675C203.961 70.0991 203.971 70.1309 203.981 70.1625C203.992 70.1941 204.002 70.2258 204.012 70.2574C204.024 70.289 204.034 70.3206 204.043 70.3522C204.055 70.3837 204.065 70.4153 204.075 70.4469C204.086 70.4785 204.096 70.51 204.106 70.5416C204.118 70.5732 204.127 70.6046 204.137 70.6363C204.149 70.6677 204.159 70.6992 204.169 70.7308C204.18 70.7622 204.19 70.7937 204.2 70.8253C204.211 70.8568 204.221 70.8882 204.231 70.9197C204.243 70.9511 204.253 70.9826 204.262 71.014C204.274 71.0455 204.284 71.0769 204.294 71.1084C204.305 71.1398 204.315 71.1711 204.325 71.2026C204.337 71.234 204.346 71.2653 204.356 71.2967C204.368 71.328 204.378 71.3595 204.388 71.3908C204.398 71.422 204.409 71.4535 204.419 71.4848C204.429 71.5161 204.44 71.5474 204.45 71.5787C204.46 71.6099 204.472 71.6412 204.482 71.6725C204.491 71.7038 204.501 71.7351 204.513 71.7662C204.523 71.7975 204.533 71.8288 204.542 71.8599C204.554 71.8912 204.564 71.9223 204.574 71.9536C204.585 71.9847 204.595 72.016 204.605 72.0471C204.615 72.0783 204.626 72.1094 204.636 72.1405C204.646 72.1716 204.656 72.2027 204.668 72.2339C204.678 72.265 204.687 72.2961 204.697 72.3271C204.709 72.3582 204.719 72.3893 204.729 72.4203C204.738 72.4514 204.75 72.4823 204.76 72.5135C204.77 72.5444 204.78 72.5754 204.79 72.6063C204.801 72.6373 204.811 72.6682 204.821 72.6992C204.831 72.7302 204.842 72.7611 204.852 72.7921C204.862 72.823 204.872 72.8538 204.882 72.8848C204.893 72.9157 204.903 72.9465 204.913 72.9773C204.923 73.0083 204.933 73.0391 204.944 73.0699C204.954 73.1007 204.964 73.1316 204.974 73.1624C204.984 73.1932 204.995 73.2238 205.005 73.2546C205.015 73.2854 205.025 73.3162 205.035 73.3468C205.046 73.3776 205.056 73.4083 205.066 73.4391C205.076 73.4697 205.086 73.5003 205.096 73.5309C205.107 73.5616 205.117 73.5922 205.127 73.6228C205.137 73.6534 205.147 73.6841 205.157 73.7147C205.167 73.7453 205.178 73.7758 205.188 73.8064C205.198 73.8369 205.208 73.8674 205.218 73.898C205.228 73.9285 205.238 73.9589 205.247 73.9894C205.259 74.0198 205.269 74.0503 205.279 74.0808C205.289 74.1112 205.298 74.1415 205.308 74.172C205.318 74.2025 205.328 74.2327 205.338 74.263C205.35 74.2935 205.359 74.3238 205.369 74.3541C205.379 74.3844 205.389 74.4147 205.399 74.445C205.409 74.4753 205.419 74.5054 205.429 74.5357C205.438 74.566 205.448 74.5962 205.46 74.6265C205.47 74.6566 205.48 74.6867 205.49 74.7169C205.499 74.747 205.509 74.7771 205.519 74.8073C205.529 74.8374 205.539 74.8675 205.549 74.8975C205.559 74.9276 205.569 74.9578 205.578 74.9877C205.588 75.0177 205.598 75.0477 205.608 75.0778C205.618 75.1078 205.628 75.1378 205.638 75.1676C205.648 75.1975 205.658 75.2275 205.667 75.2573C205.677 75.2873 205.687 75.3171 205.697 75.347C205.707 75.3769 205.717 75.4067 205.727 75.4365C205.737 75.4663 205.746 75.4961 205.756 75.5259C205.766 75.5557 205.776 75.5853 205.786 75.6151C205.796 75.6448 205.806 75.6746 205.816 75.7042C205.826 75.7338 205.835 75.7635 205.845 75.7931C205.855 75.8228 205.865 75.8524 205.875 75.8819C205.885 75.9115 205.895 75.941 205.905 75.9706C205.914 76.0001 205.924 76.0296 205.934 76.0591C205.942 76.0885 205.952 76.118 205.962 76.1475C205.972 76.177 205.982 76.2063 205.992 76.2358C206.002 76.2651 206.012 76.2945 206.022 76.3239C206.031 76.3532 206.04 76.3825 206.05 76.4118C206.059 76.4411 206.069 76.4702 206.079 76.4995C206.089 76.5287 206.099 76.558 206.109 76.5872C206.119 76.6163 206.127 76.6454 206.137 76.6746C206.147 76.7037 206.157 76.7329 206.166 76.762C206.176 76.791 206.185 76.8202 206.194 76.8491C206.204 76.8783 206.214 76.9073 206.224 76.9363C206.234 76.9652 206.242 76.9942 206.252 77.023C206.262 77.052 206.272 77.0808 206.282 77.1098C206.29 77.1386 206.3 77.1674 206.31 77.1963C206.32 77.2251 206.33 77.2539 206.338 77.2827C206.348 77.3115 206.358 77.3402 206.367 77.3688C206.377 77.3976 206.386 77.4263 206.395 77.4549C206.405 77.4836 206.415 77.5122 206.423 77.5409C206.433 77.5694 206.443 77.598 206.453 77.6265C206.461 77.6552 206.471 77.6837 206.481 77.7122C206.489 77.7406 206.499 77.7691 206.509 77.7975C206.519 77.8259 206.527 77.8544 206.537 77.8828C206.547 77.9111 206.555 77.9394 206.565 77.9677C206.575 77.996 206.585 78.0244 206.593 78.0527C206.603 78.0808 206.613 78.1092 206.621 78.1373C206.631 78.1655 206.641 78.1936 206.649 78.2218C206.659 78.25 206.669 78.2781 206.677 78.3061C206.687 78.3343 206.695 78.3623 206.705 78.3904C206.715 78.4184 206.723 78.4464 206.733 78.4744C206.743 78.5022 206.751 78.5302 206.761 78.558L208.324 78.0407C208.316 78.0128 208.306 77.9848 208.296 77.9569C208.288 77.9289 208.278 77.9009 208.268 77.8729C208.26 77.8449 208.25 77.8169 208.242 77.7887C208.232 77.7607 208.222 77.7326 208.214 77.7044C208.204 77.6763 208.194 77.6481 208.186 77.6199C208.176 77.5918 208.166 77.5635 208.158 77.5351C208.148 77.507 208.138 77.4787 208.128 77.4503C208.12 77.422 208.11 77.3937 208.1 77.3654C208.092 77.3369 208.082 77.3086 208.072 77.2801C208.064 77.2517 208.054 77.2233 208.044 77.1948C208.034 77.1663 208.026 77.1376 208.016 77.1091C208.006 77.0807 207.996 77.052 207.988 77.0234C207.978 76.9949 207.968 76.9662 207.958 76.9376C207.95 76.9089 207.94 76.8803 207.93 76.8514C207.921 76.8228 207.912 76.794 207.902 76.7653C207.893 76.7365 207.883 76.7077 207.873 76.6789C207.865 76.6501 207.855 76.6212 207.845 76.5924C207.835 76.5634 207.825 76.5346 207.817 76.5056C207.807 76.4767 207.797 76.4477 207.787 76.4187C207.777 76.3897 207.767 76.3607 207.759 76.3318C207.749 76.3028 207.739 76.2736 207.73 76.2446C207.72 76.2155 207.71 76.1864 207.702 76.1572C207.692 76.1281 207.682 76.0989 207.672 76.0698C207.662 76.0406 207.652 76.0113 207.642 75.9822C207.634 75.9529 207.624 75.9235 207.614 75.8944C207.604 75.8651 207.594 75.8358 207.585 75.8065C207.575 75.777 207.565 75.7477 207.555 75.7184C207.545 75.6889 207.537 75.6596 207.527 75.6301C207.517 75.6006 207.507 75.5712 207.497 75.5417C207.487 75.5122 207.478 75.4827 207.468 75.4531C207.458 75.4236 207.448 75.3941 207.438 75.3645C207.428 75.3349 207.418 75.3054 207.408 75.2758C207.398 75.2461 207.389 75.2165 207.38 75.1868C207.37 75.157 207.361 75.1274 207.351 75.0977C207.341 75.0679 207.331 75.0381 207.321 75.0085C207.311 74.9787 207.301 74.9489 207.291 74.9191C207.282 74.8893 207.272 74.8595 207.262 74.8297C207.252 74.7997 207.242 74.7699 207.232 74.7399C207.222 74.7101 207.212 74.6801 207.202 74.6502C207.193 74.6202 207.183 74.5902 207.173 74.5603C207.163 74.5303 207.153 74.5003 207.143 74.4704C207.132 74.4402 207.122 74.4103 207.112 74.3801C207.102 74.3502 207.092 74.32 207.082 74.2899C207.072 74.2598 207.062 74.2296 207.053 74.1995C207.043 74.1694 207.033 74.1392 207.023 74.1089C207.013 74.0788 207.003 74.0485 206.993 74.0184C206.983 73.9881 206.972 73.9579 206.962 73.9276C206.952 73.8973 206.942 73.867 206.932 73.8367C206.922 73.8064 206.913 73.776 206.903 73.7457C206.893 73.7154 206.883 73.6849 206.873 73.6546C206.862 73.6241 206.852 73.5937 206.842 73.5634C206.832 73.5329 206.822 73.5024 206.812 73.472C206.802 73.4415 206.792 73.4111 206.781 73.3804C206.771 73.35 206.761 73.3195 206.751 73.2889C206.741 73.2584 206.731 73.2278 206.722 73.1973C206.71 73.1667 206.7 73.1361 206.69 73.1054C206.68 73.0748 206.67 73.0442 206.661 73.0136C206.651 72.9829 206.639 72.9523 206.629 72.9215C206.619 72.8909 206.61 72.8603 206.6 72.8295C206.59 72.7987 206.578 72.768 206.568 72.7372C206.558 72.7065 206.549 72.6757 206.539 72.6449C206.527 72.6141 206.517 72.5833 206.507 72.5525C206.498 72.5217 206.488 72.4909 206.476 72.4599C206.466 72.4292 206.456 72.3982 206.446 72.3674C206.437 72.3364 206.425 72.3057 206.415 72.2747C206.405 72.2437 206.395 72.2128 206.386 72.1818C206.374 72.1509 206.364 72.1199 206.354 72.089C206.344 72.058 206.333 72.027 206.323 71.9959C206.313 71.965 206.303 71.934 206.292 71.9029C206.282 71.8719 206.272 71.8408 206.262 71.8097C206.25 71.7787 206.241 71.7476 206.231 71.7165C206.221 71.6854 206.209 71.6542 206.199 71.6231C206.19 71.592 206.18 71.5609 206.168 71.5297C206.158 71.4985 206.148 71.4673 206.138 71.4362C206.127 71.4049 206.117 71.3738 206.107 71.3425C206.097 71.3114 206.086 71.2801 206.076 71.2488C206.066 71.2177 206.054 71.1864 206.045 71.1551C206.035 71.1238 206.025 71.0926 206.013 71.0613C206.003 71.03 205.994 70.9987 205.982 70.9674C205.972 70.936 205.962 70.9047 205.952 70.8734C205.941 70.8419 205.931 70.8106 205.921 70.7792C205.91 70.7479 205.9 70.7165 205.89 70.6852C205.878 70.6537 205.868 70.6223 205.858 70.591C205.847 70.5595 205.837 70.5281 205.827 70.4966C205.816 70.4652 205.806 70.4337 205.796 70.4023C205.784 70.3708 205.774 70.3394 205.765 70.3078C205.755 70.2763 205.743 70.2449 205.733 70.2134C205.723 70.1818 205.712 70.1503 205.702 70.1187C205.69 70.0873 205.681 70.0557 205.671 70.0242C205.659 69.9926 205.649 69.961 205.639 69.9295C205.628 69.8979 205.618 69.8663 205.608 69.8347C205.597 69.8032 205.587 69.7716 205.577 69.74C205.565 69.7084 205.555 69.6768 205.546 69.6451C205.534 69.6134 205.524 69.5817 205.514 69.5501C205.503 69.5185 205.493 69.4869 205.481 69.4551C205.471 69.4235 205.462 69.3919 205.45 69.3601C205.44 69.3285 205.43 69.2967 205.419 69.2651C205.409 69.2333 205.397 69.2017 205.387 69.1699C205.378 69.1381 205.366 69.1065 205.356 69.0747C205.346 69.043 205.335 69.0112 205.325 68.9794C205.313 68.9478 205.303 68.916 205.294 68.8842C205.282 68.8524 205.272 68.8207 205.262 68.7889C205.251 68.7571 205.241 68.7253 205.229 68.6935C205.219 68.6617 205.21 68.6298 205.198 68.598C205.188 68.5662 205.177 68.5345 205.167 68.5025C205.157 68.4707 205.145 68.439 205.135 68.407C205.124 68.3752 205.114 68.3434 205.104 68.3115C205.093 68.2797 205.083 68.2478 205.071 68.216C205.061 68.1841 205.051 68.1523 205.04 68.1203C205.03 68.0884 205.018 68.0566 205.009 68.0247C204.999 67.9927 204.987 67.9609 204.977 67.929C204.966 67.897 204.956 67.8652 204.944 67.8333C204.934 67.8014 204.925 67.7694 204.913 67.7375C204.903 67.7055 204.892 67.6736 204.882 67.6418C204.872 67.6099 204.86 67.5779 204.85 67.546C204.839 67.514 204.829 67.4821 204.818 67.4501C204.808 67.4182 204.798 67.3862 204.786 67.3541C204.776 67.3222 204.765 67.2902 204.755 67.2583C204.743 67.2263 204.734 67.1944 204.724 67.1625C204.712 67.1304 204.702 67.0984 204.691 67.0665C204.681 67.0345 204.669 67.0024 204.659 66.9705C204.65 66.9385 204.638 66.9066 204.628 66.8745C204.617 66.8425 204.607 66.8106 204.595 66.7785C204.585 66.7465 204.575 66.7146 204.564 66.6825C204.554 66.6505 204.542 66.6186 204.533 66.5865C204.521 66.5545 204.511 66.5224 204.501 66.4904C204.49 66.4583 204.48 66.4264 204.468 66.3945C204.458 66.3623 204.447 66.3304 204.437 66.2983C204.426 66.2663 204.416 66.2342 204.406 66.2023C204.394 66.1702 204.384 66.1382 204.373 66.1061C204.363 66.0742 204.351 66.0421 204.342 66.0101C204.332 65.978 204.32 65.9461 204.31 65.914C204.299 65.882 204.289 65.8499 204.277 65.8178C204.267 65.7858 204.256 65.7537 204.246 65.7218C204.236 65.6897 204.225 65.6577 204.215 65.6256C204.203 65.5937 204.193 65.5616 204.182 65.5296C204.172 65.4975 204.162 65.4654 204.15 65.4335C204.141 65.4013 204.129 65.3694 204.119 65.3373C204.108 65.3053 204.098 65.2732 204.086 65.2413C204.076 65.2092 204.066 65.1772 204.055 65.1451C204.045 65.1132 204.034 65.0811 204.024 65.0491C204.012 65.017 204.002 64.9851 203.991 64.953C203.981 64.921 203.971 64.8889 203.959 64.857C203.95 64.8249 203.938 64.7929 203.928 64.7608C203.917 64.7288 203.907 64.6967 203.897 64.6648C203.885 64.6327 203.875 64.6007 203.864 64.5688C203.854 64.5367 203.842 64.5047 203.833 64.4728C203.823 64.4407 203.811 64.4087 203.801 64.3768C203.79 64.3447 203.78 64.3127 203.768 64.2808C203.758 64.2487 203.749 64.2167 203.737 64.1848C203.727 64.1528 203.716 64.1207 203.706 64.0888C203.694 64.0568 203.684 64.0249 203.674 63.9928C203.663 63.9608 203.653 63.9289 203.642 63.897C203.632 63.865 203.62 63.8331 203.61 63.8011C203.6 63.7692 203.589 63.7372 203.579 63.7053C203.567 63.6733 203.558 63.6414 203.546 63.6094C203.536 63.5775 203.526 63.5455 203.515 63.5136C203.505 63.4817 203.493 63.4497 203.483 63.4178C203.474 63.3858 203.462 63.3541 203.452 63.3221C203.441 63.2902 203.431 63.2582 203.419 63.2264C203.409 63.1945 203.399 63.1625 203.388 63.1306C203.378 63.0988 203.366 63.0669 203.357 63.0351C203.347 63.0031 203.335 62.9714 203.325 62.9394C203.314 62.9076 203.304 62.8757 203.294 62.8439C203.282 62.812 203.273 62.7802 203.261 62.7484C203.251 62.7165 203.241 62.6847 203.23 62.6529C203.22 62.621 203.208 62.5892 203.198 62.5574C203.189 62.5256 203.177 62.4938 203.167 62.4621C203.156 62.4301 203.146 62.3983 203.136 62.3665C203.124 62.3348 203.114 62.3031 203.103 62.2714C203.093 62.2396 203.083 62.2078 203.072 62.176C203.062 62.1442 203.052 62.1126 203.04 62.0808C203.03 62.0491 203.019 62.0173 203.009 61.9857C202.999 61.9539 202.988 61.9223 202.978 61.8905C202.968 61.8589 202.956 61.8271 202.946 61.7955C202.935 61.7637 202.925 61.7321 202.915 61.7005C202.904 61.6688 202.894 61.6371 202.884 61.6055C202.872 61.5738 202.862 61.5422 202.853 61.5106C202.841 61.479 202.831 61.4474 202.82 61.4158C202.81 61.3841 202.8 61.3525 202.788 61.3209C202.778 61.2893 202.769 61.2578 202.757 61.2262C202.747 61.1946 202.737 61.1631 202.726 61.1315C202.716 61.1001 202.706 61.0685 202.694 61.037C202.685 61.0054 202.675 60.9739 202.663 60.9425C202.653 60.9109 202.643 60.8794 202.632 60.848C202.622 60.8165 202.612 60.7851 202.601 60.7536C202.591 60.722 202.581 60.6907 202.569 60.6593C202.559 60.6278 202.55 60.5964 202.538 60.5649C202.528 60.5335 202.518 60.5022 202.508 60.4707C202.497 60.4394 202.487 60.408 202.477 60.3767C202.466 60.3453 202.456 60.314 202.446 60.2825C202.434 60.2512 202.424 60.2199 202.414 60.1887C202.405 60.1574 202.393 60.1261 202.383 60.0948C202.373 60.0635 202.362 60.0322 202.352 60.0009C202.342 59.9696 202.332 59.9384 202.321 59.9072C202.311 59.876 202.301 59.8447 202.289 59.8135C202.279 59.7823 202.27 59.7511 202.26 59.72C202.248 59.6887 202.238 59.6576 202.228 59.6265C202.218 59.5954 202.207 59.5642 202.197 59.5331C202.187 59.502 202.177 59.4709 202.166 59.4398C202.156 59.4086 202.146 59.3775 202.136 59.3465C202.125 59.3154 202.115 59.2845 202.105 59.2534C202.095 59.2224 202.083 59.1913 202.074 59.1603C202.064 59.1294 202.054 59.0984 202.042 59.0674C202.032 59.0363 202.022 59.0054 202.013 58.9746C202.003 58.9436 201.991 58.9127 201.981 58.8817C201.971 58.8507 201.962 58.8199 201.952 58.789C201.94 58.7582 201.93 58.7272 201.92 58.6964C201.91 58.6657 201.901 58.6349 201.889 58.6041C201.879 58.5731 201.869 58.5423 201.859 58.5117C201.85 58.4809 201.838 58.4501 201.828 58.4193C201.818 58.3885 201.808 58.3579 201.798 58.3271C201.789 58.2965 201.777 58.2657 201.767 58.2351C201.757 58.2044 201.747 58.1738 201.738 58.1432C201.728 58.1125 201.716 58.0819 201.706 58.0513C201.696 58.0207 201.686 57.99 201.677 57.9596C201.667 57.9289 201.655 57.8983 201.645 57.8678C201.635 57.8374 201.626 57.8068 201.616 57.7763C201.606 57.7458 201.596 57.7154 201.586 57.6849C201.574 57.6544 201.565 57.624 201.555 57.5937C201.545 57.5632 201.535 57.5328 201.525 57.5025C201.515 57.472 201.505 57.4417 201.495 57.4114C201.486 57.3809 201.474 57.3506 201.464 57.3203C201.454 57.29 201.444 57.2597 201.434 57.2296C201.425 57.1993 201.415 57.169 201.405 57.1389C201.395 57.1086 201.385 57.0784 201.375 57.0481C201.365 57.018 201.354 56.9879 201.344 56.9577C201.334 56.9276 201.324 56.8975 201.314 56.8673C201.304 56.8374 201.294 56.8072 201.285 56.7771C201.275 56.7471 201.265 56.717 201.255 56.687C201.245 56.6571 201.235 56.6271 201.225 56.5971C201.215 56.5671 201.206 56.5372 201.196 56.5072C201.186 56.4772 201.176 56.4474 201.166 56.4175C201.156 56.3877 201.146 56.3578 201.136 56.3279C201.126 56.2981 201.117 56.2683 201.107 56.2385C201.097 56.2087 201.087 56.179 201.077 56.1492C201.067 56.1194 201.057 56.0898 201.047 56.06C201.038 56.0303 201.028 56.0007 201.018 55.9711C201.008 55.9414 200.998 55.9118 200.988 55.8821C200.978 55.8525 200.968 55.8228 200.958 55.7934C200.949 55.7637 200.939 55.7343 200.93 55.7048C200.921 55.6751 200.911 55.6457 200.901 55.6162C200.891 55.5867 200.881 55.5574 200.871 55.5279C200.861 55.4985 200.851 55.4691 200.842 55.4397C200.832 55.4104 200.823 55.3811 200.814 55.3517C200.804 55.3224 200.794 55.2931 200.784 55.2638C200.774 55.2345 200.764 55.2053 200.754 55.176C200.744 55.1469 200.736 55.1177 200.726 55.0884C200.716 55.0593 200.706 55.0301 200.697 55.001C200.687 54.972 200.677 54.9429 200.669 54.9137C200.659 54.8847 200.649 54.8558 200.639 54.8266C200.629 54.7976 200.619 54.7687 200.611 54.7397C200.601 54.7107 200.591 54.6819 200.581 54.6529C200.571 54.6241 200.563 54.5951 200.553 54.5663C200.543 54.5375 200.534 54.5086 200.524 54.4798C200.515 54.451 200.506 54.4222 200.496 54.3934C200.486 54.3647 200.476 54.3359 200.468 54.3073C200.458 54.2786 200.448 54.25 200.438 54.2213C200.43 54.1927 200.42 54.164 200.41 54.1355C200.4 54.1069 200.392 54.0784 200.382 54.0497C200.372 54.0212 200.362 53.9927 200.354 53.9643C200.344 53.9358 200.334 53.9074 200.326 53.879C200.316 53.8506 200.306 53.8222 200.296 53.7938C200.288 53.7655 200.278 53.7372 200.268 53.7089C200.26 53.6805 200.25 53.6522 200.24 53.6241C200.232 53.5957 200.222 53.5676 200.212 53.5394C200.204 53.5113 200.194 53.4831 200.184 53.4549C200.176 53.4268 200.166 53.3988 200.156 53.3706C200.148 53.3426 200.138 53.3146 200.13 53.2866C200.12 53.2587 200.11 53.2307 200.102 53.2027C200.092 53.1747 200.082 53.1468 200.074 53.119C200.064 53.091 200.056 53.0632 200.046 53.0354C200.036 53.0075 200.028 52.9799 200.018 52.9521C200.01 52.9242 200 52.8966 199.992 52.8689C199.982 52.8412 199.972 52.8136 199.964 52.7859C199.954 52.7582 199.946 52.7307 199.936 52.7031C199.927 52.6756 199.918 52.6479 199.909 52.6204C199.899 52.5929 199.891 52.5656 199.881 52.5381C199.873 52.5106 199.863 52.4833 199.855 52.4559C199.845 52.4284 199.837 52.4011 199.827 52.3737C199.819 52.3466 199.809 52.3192 199.801 52.2921C199.791 52.2647 199.782 52.2376 199.773 52.2104C199.764 52.1832 199.754 52.1561 199.746 52.1289C199.736 52.1019 199.728 52.0747 199.718 52.0477C199.71 52.0207 199.702 51.9937 199.692 51.9667C199.684 51.9397 199.674 51.9127 199.666 51.8858C199.657 51.859 199.647 51.832 199.639 51.8051C199.629 51.7783 199.621 51.7516 199.613 51.7248C199.603 51.698 199.595 51.6713 199.585 51.6446C199.577 51.6179 199.568 51.5912 199.558 51.5646C199.55 51.5379 199.542 51.5114 199.532 51.4847C199.524 51.4582 199.516 51.4317 199.506 51.4052C199.498 51.3787 199.489 51.3522 199.479 51.3258C199.471 51.2995 199.463 51.2729 199.453 51.2466C199.445 51.2202 199.437 51.1939 199.428 51.1677C199.418 51.1414 199.41 51.1152 199.402 51.089C199.394 51.0628 199.384 51.0367 199.376 51.0105C199.367 50.9843 199.359 50.9583 199.349 50.9321C199.341 50.9061 199.333 50.8801 199.325 50.854C199.315 50.8282 199.306 50.8022 199.298 50.7763C199.29 50.7503 199.282 50.7244 199.272 50.6986C199.264 50.6727 199.255 50.647 199.247 50.6212C199.239 50.5955 199.229 50.5697 199.221 50.544C199.213 50.5183 199.204 50.4928 199.196 50.4671C199.188 50.4415 199.178 50.4159 199.17 50.3903C199.162 50.3648 199.153 50.3393 199.145 50.3139C199.137 50.2884 199.129 50.263 199.12 50.2377C199.112 50.2122 199.102 50.187 199.094 50.1616C199.086 50.1363 199.078 50.1111 199.069 50.0859C199.061 50.0605 199.053 50.0353 199.045 50.0103C199.036 49.9851 199.028 49.9601 199.02 49.9349C199.012 49.9098 199.003 49.8848 198.995 49.8598C198.987 49.8349 198.979 49.8099 198.97 49.785C198.962 49.7602 198.954 49.7353 198.946 49.7104C198.938 49.6856 198.929 49.6609 198.921 49.636C198.913 49.6113 198.905 49.5866 198.896 49.5619C198.888 49.5372 198.88 49.5127 198.872 49.488C198.863 49.4634 198.855 49.4389 198.847 49.4143C198.839 49.39 198.83 49.3654 198.822 49.3411C198.816 49.3165 198.807 49.2922 198.799 49.268C198.791 49.2436 198.783 49.2192 198.774 49.195C198.766 49.1708 198.758 49.1466 198.751 49.1224C198.743 49.0982 198.735 49.0741 198.727 49.0499C198.718 49.0259 198.71 49.0019 198.702 48.9778C198.695 48.9539 198.687 48.9299 198.679 48.906C198.671 48.8822 198.662 48.8583 198.656 48.8344C198.648 48.8105 198.639 48.7868 198.631 48.7631C198.625 48.7394 198.616 48.7157 198.608 48.692C198.6 48.6682 198.592 48.6447 198.585 48.6212C198.577 48.5976 198.569 48.5741 198.562 48.5505C198.554 48.5271 198.546 48.5037 198.537 48.4802C198.531 48.4568 198.522 48.4336 198.514 48.4102C198.508 48.387 198.499 48.3636 198.491 48.3404C198.485 48.3172 198.476 48.2941 198.468 48.2709C198.462 48.2479 198.453 48.2248 198.445 48.2017C198.438 48.1787 198.43 48.1556 198.424 48.1328C198.415 48.1099 198.407 48.087 198.401 48.0641C198.392 48.0412 198.386 48.0185 198.378 47.9956C198.369 47.9729 198.363 47.9501 198.354 47.9276C198.348 47.9049 198.34 47.8823 198.333 47.8596C198.325 47.837 198.318 47.8144 198.31 47.7921C198.303 47.7695 198.295 47.7471 198.289 47.7247C198.28 47.7023 198.274 47.6799 198.266 47.6577C198.259 47.6355 198.251 47.6132 198.244 47.591C198.236 47.5688 198.229 47.5465 198.221 47.5245C198.214 47.5024 198.206 47.4803 198.2 47.4583C198.193 47.4362 198.185 47.4143 198.178 47.3924C198.17 47.3705 198.163 47.3486 198.157 47.3267C198.149 47.305 198.142 47.2832 198.134 47.2615C198.127 47.2398 198.121 47.218 198.112 47.1965C198.106 47.1747 198.099 47.1531 198.091 47.1317C198.084 47.1102 198.078 47.0886 198.07 47.0672C198.063 47.0458 198.056 47.0244 198.05 47.0031C198.042 46.9817 198.035 46.9605 198.028 46.9392C198.02 46.918 198.014 46.8968 198.007 46.8757C198 46.8544 197.992 46.8334 197.986 46.8123C197.979 46.7914 197.972 46.7703 197.966 46.7494C197.958 46.7285 197.951 46.7076 197.944 46.6867C197.938 46.6659 197.931 46.6452 197.923 46.6244C197.916 46.6037 197.91 46.5829 197.903 46.5623C197.897 46.5416 197.89 46.521 197.882 46.5006C197.875 46.48 197.869 46.4596 197.862 46.439C197.855 46.4186 197.849 46.3983 197.842 46.3779C197.836 46.3576 197.829 46.3372 197.822 46.3171C197.816 46.2969 197.809 46.2766 197.801 46.2565C197.794 46.2365 197.788 46.2164 197.781 46.1963C197.775 46.1763 197.768 46.1563 197.762 46.1365C197.755 46.1166 197.748 46.0967 197.742 46.0769C197.735 46.057 197.729 46.0372 197.722 46.0176C197.715 45.9978 197.71 45.9783 197.704 45.9587C197.697 45.9391 197.691 45.9195 197.684 45.8999C197.678 45.8804 197.671 45.861 197.664 45.8416C197.658 45.8222 197.651 45.8029 197.645 45.7836C197.64 45.7644 197.633 45.7451 197.626 45.726C197.62 45.7067 197.613 45.6876 197.607 45.6685C197.6 45.6496 197.595 45.6305 197.589 45.6115C197.582 45.5926 197.575 45.5737 197.569 45.5549C197.564 45.536 197.557 45.5172 197.551 45.4984C197.544 45.4796 197.539 45.461 197.533 45.4424C197.526 45.4238 197.519 45.4052 197.514 45.3866C197.508 45.3682 197.501 45.3497 197.495 45.3313C197.49 45.3128 197.483 45.2946 197.477 45.2763C197.472 45.258 197.465 45.2397 197.458 45.2214C197.454 45.2033 197.447 45.1852 197.44 45.1671C197.435 45.149 197.429 45.131 197.424 45.1131C197.417 45.0951 197.411 45.0772 197.406 45.0594C197.399 45.0415 197.394 45.0237 197.388 45.0061C197.383 44.9883 197.376 44.9705 197.37 44.9529C197.365 44.9353 197.358 44.9178 197.353 44.9002C197.346 44.8827 197.342 44.8653 197.335 44.848C197.33 44.8305 197.323 44.8132 197.318 44.7959C197.312 44.7787 197.307 44.7614 197.3 44.7442C197.295 44.7271 197.29 44.71 197.284 44.693C197.279 44.6759 197.272 44.6589 197.267 44.642C197.262 44.625 197.256 44.6082 197.251 44.5914C197.244 44.5746 197.239 44.5578 197.234 44.5412C197.228 44.5244 197.223 44.5078 197.218 44.4913C197.211 44.4747 197.206 44.4582 197.202 44.4417C197.195 44.4253 197.19 44.4088 197.185 44.3925C197.178 44.3762 197.174 44.3599 197.169 44.3436C197.164 44.3275 197.157 44.3113 197.152 44.2952C197.147 44.2791 197.142 44.2631 197.137 44.2471C197.131 44.2311 197.126 44.2152 197.121 44.1994C197.116 44.1834 197.111 44.1676 197.104 44.1519C197.099 44.1361 197.094 44.1205 197.09 44.1048C197.085 44.0892 197.08 44.0737 197.075 44.0582C197.068 44.0428 197.063 44.0273 197.058 44.012C197.053 43.9965 197.048 43.9812 197.043 43.966C197.038 43.9507 197.034 43.9356 197.029 43.9204C197.024 43.9053 197.019 43.8903 197.014 43.8753C197.009 43.8603 197.004 43.8453 196.999 43.8305C196.994 43.8155 196.989 43.8007 196.984 43.786C196.979 43.7712 196.974 43.7566 196.969 43.7419C196.964 43.7273 196.959 43.7128 196.954 43.6983C196.95 43.6838 196.945 43.6693 196.941 43.655C196.936 43.6405 196.931 43.6263 196.926 43.612C196.922 43.5977 196.917 43.5835 196.912 43.5695C196.908 43.5553 196.903 43.5412 196.898 43.5272C196.894 43.5132 196.889 43.4994 196.884 43.4855C196.88 43.4715 196.875 43.4579 196.87 43.444C196.866 43.4304 196.862 43.4167 196.857 43.403C196.852 43.3894 196.847 43.3759 196.844 43.3624C196.839 43.3489 196.834 43.3355 196.831 43.3222C196.826 43.3088 196.821 43.2955 196.818 43.2823C196.813 43.2692 196.808 43.256 196.805 43.2428C196.8 43.2298 196.795 43.2168 196.791 43.2038C196.786 43.1908 196.783 43.1779 196.778 43.1651C196.773 43.1522 196.77 43.1396 196.765 43.1269C196.762 43.114 196.757 43.1015 196.754 43.0888C196.749 43.0763 196.745 43.0638 196.74 43.0515C196.737 43.039 196.732 43.0266 196.729 43.0144C196.724 43.0021 196.721 42.9899 196.716 42.9777C196.712 42.9655 196.709 42.9533 196.704 42.9413C196.701 42.9293 196.696 42.9174 196.693 42.9054C196.688 42.8936 196.684 42.8817 196.681 42.87C196.676 42.8583 196.673 42.8466 196.67 42.8349C196.665 42.8232 196.661 42.8117 196.658 42.8004C196.653 42.7888 196.65 42.7773 196.646 42.7659C196.643 42.7547 196.638 42.7434 196.635 42.7322C196.632 42.721 196.628 42.7098 196.623 42.6988C196.62 42.6877 196.617 42.6767 196.614 42.6657C196.609 42.6548 196.605 42.6439 196.602 42.6331C196.599 42.6223 196.595 42.6116 196.592 42.6009C196.589 42.5902 196.584 42.5797 196.581 42.5692C196.577 42.5586 196.574 42.5481 196.571 42.5377C196.567 42.5273 196.564 42.5171 196.561 42.5069C196.558 42.4965 196.554 42.4865 196.551 42.4763C196.548 42.4662 196.544 42.4562 196.541 42.4462C196.538 42.4363 196.534 42.4264 196.531 42.4165C196.528 42.4068 196.525 42.3969 196.521 42.3874C196.518 42.3777 196.515 42.3679 196.511 42.3585C196.508 42.349 196.505 42.3394 196.502 42.3301C196.498 42.3207 196.495 42.3115 196.493 42.3021C196.49 42.2928 196.487 42.2836 196.483 42.2746C196.48 42.2655 196.477 42.2565 196.475 42.2476C196.472 42.2385 196.469 42.2296 196.465 42.2209C196.462 42.212 196.46 42.2033 196.457 42.1945C196.454 42.186 196.452 42.1773 196.449 42.1689C196.446 42.1603 196.442 42.1517 196.441 42.1435C196.437 42.1351 196.434 42.1267 196.432 42.1185C196.429 42.1102 196.426 42.1022 196.424 42.0941C196.421 42.0859 196.419 42.078 196.416 42.0701C196.413 42.062 196.411 42.0542 196.408 42.0463C196.406 42.0386 196.403 42.0309 196.401 42.0233C196.398 42.0156 196.394 42.008 196.393 42.0006C196.39 41.993 196.388 41.9856 196.386 41.9782C196.383 41.9709 196.381 41.9637 196.378 41.9564C196.376 41.9492 196.373 41.9421 196.371 41.935C196.368 41.9279 196.366 41.921 196.365 41.9141C196.362 41.9072 196.36 41.9004 196.358 41.8937C196.355 41.8869 196.353 41.8802 196.35 41.8736C196.348 41.867 196.347 41.8606 196.345 41.8542C196.342 41.8478 196.34 41.8413 196.338 41.8351C196.335 41.8286 196.334 41.8226 196.332 41.8163C196.33 41.8102 196.329 41.8041 196.325 41.7982C196.324 41.7923 196.322 41.7863 196.32 41.7804C196.319 41.7746 196.315 41.7689 196.314 41.7633C196.312 41.7575 196.31 41.7519 196.309 41.7465C196.307 41.7409 196.306 41.7355 196.304 41.73C196.302 41.7248 196.299 41.7195 196.297 41.7142C196.296 41.7089 196.294 41.7038 196.292 41.6987C196.291 41.6938 196.289 41.6889 196.287 41.6839C196.286 41.679 196.284 41.6742 196.282 41.6694C196.281 41.6646 196.281 41.66 196.279 41.6554C196.278 41.6508 196.276 41.6464 196.274 41.6419C196.273 41.6375 196.271 41.6332 196.269 41.6289C196.268 41.6246 196.268 41.6204 196.266 41.6162C196.264 41.6121 196.263 41.6082 196.261 41.6042C196.261 41.6003 196.259 41.5963 196.258 41.5925C196.256 41.5887 196.254 41.5851 196.254 41.5815C196.253 41.5779 196.251 41.5742 196.251 41.5708C196.25 41.5673 196.248 41.5639 196.248 41.5606C196.246 41.5573 196.245 41.554 196.245 41.5509C196.243 41.5477 196.241 41.5446 196.241 41.5416C196.24 41.5387 196.24 41.5357 196.238 41.5329C196.236 41.5301 196.236 41.5275 196.235 41.5247C196.235 41.522 196.233 41.5194 196.233 41.5169C196.231 41.5145 196.231 41.512 196.23 41.5097C196.23 41.5074 196.228 41.5051 196.228 41.5029C196.228 41.5008 196.226 41.4987 196.226 41.4967C196.225 41.4947 196.225 41.4927 196.225 41.4909C196.223 41.4891 196.223 41.4873 196.222 41.4857C196.222 41.484 196.222 41.4824 196.222 41.4809C196.22 41.4794 196.22 41.4779 196.22 41.4766C196.218 41.4753 196.218 41.474 196.218 41.4728C196.218 41.4717 196.217 41.4705 196.217 41.4695C196.217 41.4685 196.217 41.4675 196.217 41.4667C196.217 41.4659 196.215 41.4651 196.215 41.4644C196.215 41.4638 196.215 41.4631 196.215 41.4626C196.215 41.4621 196.215 41.4618 196.215 41.4613C196.215 41.461 196.213 41.4608 196.213 41.4606C196.213 41.4605 196.213 41.4603 195.433 41.719ZM207.721 77.4958C202.951 76.4325 196.844 75.0712 191.929 73.9757C189.472 73.4279 187.313 72.9465 185.768 72.6022C184.995 72.43 184.376 72.2921 183.951 72.1971C183.738 72.1499 183.572 72.113 183.462 72.0883C183.406 72.0758 183.363 72.0664 183.335 72.06C183.322 72.057 183.31 72.0544 183.304 72.0529C183.292 72.0504 183.304 72.0532 183.295 72.0511C183.294 72.0509 183.294 72.0509 183.294 72.0508C183.294 72.0508 183.294 72.0506 183.292 72.0506C183.292 72.0506 183.292 72.0506 183.292 72.0504C183.292 72.0504 183.292 72.0504 183.113 72.854C182.933 73.6576 182.933 73.6577 182.935 73.6577C182.94 73.6589 182.931 73.6571 182.936 73.6582C182.936 73.6584 182.938 73.6584 182.938 73.6586C182.938 73.6587 182.94 73.6589 182.94 73.6591C182.946 73.6605 182.938 73.6584 182.945 73.66C182.953 73.6619 182.961 73.664 182.978 73.6673C183.006 73.6735 183.048 73.6831 183.103 73.6954C183.215 73.7203 183.379 73.7569 183.592 73.8045C184.018 73.8993 184.638 74.0373 185.409 74.2094C186.954 74.5538 189.113 75.0352 191.57 75.5828C196.485 76.6784 202.594 78.0397 207.364 79.1029L207.721 77.4958ZM182.515 72.2884L163.893 91.9797L165.089 93.111L183.712 73.4196L182.515 72.2884ZM164.491 92.5453C164.15 93.2951 164.152 93.2952 164.152 93.2952C164.152 93.2954 164.152 93.2956 164.152 93.2957C164.153 93.296 164.153 93.2967 164.155 93.2974C164.158 93.2987 164.163 93.3005 164.168 93.303C164.18 93.3079 164.196 93.3152 164.216 93.3247C164.259 93.3435 164.321 93.3711 164.402 93.407C164.565 93.4785 164.804 93.5826 165.112 93.7136C165.728 93.9758 166.622 94.3461 167.737 94.7813C169.966 95.6514 173.082 96.7825 176.628 97.826C183.681 99.901 192.59 101.677 199.618 100.232L199.287 98.6191C192.684 99.9762 184.114 98.3118 177.093 96.2464C173.602 95.2195 170.534 94.1052 168.337 93.2475C167.238 92.8188 166.36 92.4548 165.756 92.1982C165.454 92.0701 165.222 91.9688 165.066 91.8998C164.987 91.8654 164.929 91.8391 164.89 91.8215C164.87 91.8127 164.855 91.8061 164.845 91.8017C164.84 91.7996 164.837 91.7981 164.835 91.7969C164.834 91.7964 164.832 91.7961 164.832 91.7959C164.832 91.7958 164.832 91.7958 164.832 91.7958C164.832 91.7956 164.832 91.7958 164.491 92.5453ZM199.618 100.232C201.734 99.7971 204.33 98.9362 206.372 98.1959C207.398 97.8237 208.294 97.4784 208.935 97.2258C209.255 97.0997 209.512 96.9964 209.688 96.9248C209.777 96.8889 209.846 96.8607 209.892 96.8416C209.915 96.8321 209.933 96.8247 209.945 96.8197C209.951 96.8171 209.956 96.8153 209.96 96.814C209.961 96.8133 209.963 96.8128 209.963 96.8125C209.963 96.8122 209.965 96.8122 209.965 96.812V96.8118C209.965 96.8118 209.965 96.8118 209.648 96.0516C209.332 95.2913 209.332 95.2911 209.332 95.2911C209.332 95.2913 209.332 95.2913 209.332 95.2913V95.2915C209.33 95.2918 209.33 95.2921 209.329 95.2928C209.326 95.2939 209.322 95.2956 209.316 95.2979C209.306 95.3025 209.288 95.3094 209.266 95.3187C209.222 95.3369 209.156 95.3641 209.069 95.399C208.897 95.4688 208.645 95.5699 208.331 95.6941C207.702 95.9422 206.819 96.2819 205.811 96.6478C203.782 97.3832 201.28 98.2095 199.287 98.6191L199.618 100.232ZM209.648 96.0516C210.014 96.789 210.016 96.789 210.016 96.7888V96.7886C210.016 96.7883 210.016 96.7881 210.017 96.788C210.017 96.7873 210.019 96.7867 210.021 96.7858C210.024 96.7842 210.029 96.782 210.034 96.7791C210.045 96.7733 210.062 96.7651 210.083 96.7545C210.123 96.7335 210.182 96.7028 210.256 96.6632C210.404 96.5839 210.615 96.4684 210.869 96.3203C211.373 96.0251 212.056 95.5969 212.761 95.0667C213.465 94.5385 214.209 93.8953 214.825 93.1666C215.438 92.4431 215.962 91.5888 216.153 90.6387L214.538 90.3146C214.422 90.8904 214.082 91.4956 213.568 92.1035C213.058 92.7062 212.417 93.2661 211.773 93.7502C211.131 94.2322 210.505 94.6256 210.037 94.8989C209.803 95.0351 209.612 95.1405 209.48 95.2111C209.414 95.2464 209.363 95.273 209.329 95.2903C209.312 95.2989 209.299 95.3053 209.293 95.3093C209.288 95.3112 209.284 95.3127 209.283 95.3135C209.283 95.3139 209.283 95.3142 209.283 95.3142C209.281 95.3142 209.281 95.3144 209.283 95.3142C209.283 95.3142 209.283 95.314 209.648 96.0516ZM213.848 83.4011C212.193 80.6506 210.73 79.2078 207.958 77.5885L207.127 79.0104C209.662 80.4906 210.925 81.7363 212.438 84.2502L213.848 83.4011ZM157.705 157.014L170.104 160.291L170.524 158.699L158.127 155.422L157.705 157.014ZM170.921 160.051L196.772 131.818L195.556 130.706L169.707 158.939L170.921 160.051ZM196.409 130.476L175.38 123.906L174.887 125.478L195.918 132.048L196.409 130.476ZM175.709 125.28L194.698 106.697L193.547 105.521L174.558 124.103L175.709 125.28ZM220.283 119.289C220.334 121.571 219.954 123.112 219.585 124.059C219.401 124.533 219.218 124.862 219.088 125.064C219.023 125.165 218.972 125.234 218.941 125.274C218.926 125.294 218.916 125.307 218.911 125.312C218.908 125.315 218.908 125.316 218.908 125.315C218.908 125.315 218.91 125.314 218.91 125.313C218.911 125.312 218.911 125.311 218.913 125.311C218.913 125.31 218.913 125.31 218.913 125.309C218.915 125.309 218.915 125.309 218.915 125.309C218.915 125.308 218.915 125.308 219.519 125.867C220.124 126.427 220.124 126.426 220.124 126.426C220.125 126.426 220.125 126.425 220.125 126.425C220.125 126.424 220.127 126.424 220.127 126.423C220.129 126.422 220.129 126.421 220.13 126.419C220.134 126.416 220.137 126.412 220.14 126.408C220.147 126.4 220.155 126.391 220.166 126.379C220.186 126.355 220.211 126.324 220.242 126.285C220.303 126.206 220.384 126.095 220.476 125.95C220.662 125.66 220.894 125.234 221.12 124.656C221.571 123.496 221.985 121.739 221.93 119.253L220.283 119.289ZM219.519 125.867C218.948 125.275 218.948 125.275 218.948 125.275C218.948 125.275 218.946 125.275 218.946 125.275C218.946 125.276 218.946 125.276 218.946 125.276C218.946 125.277 218.944 125.278 218.943 125.279C218.939 125.282 218.936 125.286 218.931 125.291C218.92 125.302 218.903 125.318 218.88 125.339C218.837 125.381 218.773 125.443 218.689 125.522C218.524 125.68 218.284 125.908 217.992 126.182C217.406 126.732 216.609 127.469 215.759 128.223C214.909 128.978 214.015 129.743 213.234 130.35C212.844 130.653 212.49 130.911 212.19 131.106C211.875 131.31 211.668 131.414 211.561 131.449L212.078 133.013C212.396 132.908 212.748 132.707 213.087 132.487C213.44 132.257 213.834 131.969 214.245 131.65C215.067 131.011 215.991 130.219 216.854 129.454C217.717 128.687 218.526 127.939 219.119 127.383C219.415 127.105 219.658 126.874 219.827 126.713C219.911 126.633 219.977 126.569 220.022 126.526C220.045 126.505 220.063 126.488 220.074 126.477C220.079 126.471 220.084 126.467 220.087 126.464C220.089 126.462 220.089 126.461 220.091 126.46C220.091 126.46 220.091 126.46 220.091 126.459C220.092 126.459 220.092 126.459 220.092 126.459C220.092 126.459 220.092 126.459 219.519 125.867ZM210.314 131.871C207.703 132.349 204.249 132.017 201.378 131.538C199.959 131.301 198.705 131.033 197.809 130.824C197.361 130.72 197.002 130.63 196.757 130.567C196.635 130.535 196.541 130.51 196.477 130.493C196.446 130.485 196.422 130.479 196.406 130.474C196.398 130.472 196.393 130.471 196.39 130.47C196.386 130.469 196.386 130.469 196.385 130.469C196.385 130.468 196.385 130.468 196.385 130.468C196.385 130.468 196.385 130.468 196.385 130.468C196.385 130.468 196.385 130.468 196.164 131.262C195.945 132.055 195.945 132.055 195.945 132.055C195.945 132.055 195.945 132.055 195.945 132.055C195.946 132.056 195.946 132.056 195.946 132.056C195.948 132.056 195.95 132.057 195.953 132.057C195.958 132.059 195.965 132.061 195.973 132.063C195.991 132.068 196.017 132.075 196.052 132.084C196.119 132.102 196.22 132.129 196.347 132.162C196.604 132.228 196.974 132.32 197.435 132.428C198.358 132.642 199.644 132.918 201.108 133.163C204.007 133.646 207.702 134.024 210.61 133.49L210.314 131.871ZM193.912 106.905L208.377 110.728L208.797 109.136L194.332 105.313L193.912 106.905ZM208.588 109.932C208.303 110.705 208.303 110.705 208.303 110.705C208.303 110.705 208.303 110.705 208.304 110.705C208.304 110.705 208.306 110.706 208.309 110.707C208.314 110.709 208.322 110.712 208.334 110.716C208.355 110.725 208.39 110.737 208.433 110.754C208.522 110.787 208.652 110.837 208.818 110.903C209.151 111.035 209.629 111.229 210.202 111.477C211.351 111.973 212.88 112.681 214.407 113.532C215.938 114.388 217.436 115.369 218.544 116.402C219.681 117.461 220.265 118.442 220.283 119.289L221.93 119.253C221.896 117.717 220.89 116.337 219.667 115.198C218.419 114.034 216.792 112.978 215.209 112.095C213.618 111.207 212.037 110.475 210.856 109.965C210.263 109.71 209.77 109.509 209.424 109.372C209.25 109.304 209.113 109.251 209.019 109.215C208.973 109.197 208.937 109.184 208.912 109.174C208.899 109.17 208.889 109.166 208.882 109.163C208.879 109.162 208.878 109.161 208.874 109.161C208.874 109.16 208.873 109.16 208.873 109.16C208.873 109.16 208.873 109.16 208.873 109.16C208.873 109.16 208.871 109.159 208.588 109.932ZM209.232 110.445L213.229 105.433L211.941 104.406L207.944 109.419L209.232 110.445ZM213.366 104.661L210.431 95.7929L208.866 96.3103L211.803 105.178L213.366 104.661ZM184.796 38.3952L151.562 27.2535L151.038 28.8146L184.272 39.9564L184.796 38.3952ZM150.698 27.4709L112.128 68.5226L113.328 69.6501L151.899 28.5988L150.698 27.4709ZM107.223 93.0469L124.838 146.255L126.401 145.737L108.786 92.5295L107.223 93.0469ZM125.371 146.781L157.667 157.003L158.165 155.433L125.868 145.211L125.371 146.781ZM107.802 93.5862L139.364 101.591L139.769 99.995L108.207 91.9901L107.802 93.5862ZM112.441 69.8582L143.972 81.5634L144.545 80.0198L113.015 68.3145L112.441 69.8582ZM112.728 69.0863C113.181 68.3989 113.181 68.3989 113.181 68.3988C113.181 68.3988 113.181 68.3986 113.18 68.3984C113.18 68.3981 113.179 68.3975 113.178 68.3966C113.175 68.395 113.171 68.3924 113.166 68.3889C113.156 68.382 113.14 68.3714 113.119 68.3574C113.077 68.3295 113.014 68.2875 112.931 68.232C112.765 68.1208 112.52 67.9557 112.204 67.7401C111.572 67.309 110.657 66.6768 109.529 65.8749C107.273 64.2706 104.165 61.9876 100.76 59.2743C93.9321 53.8327 85.9791 46.7141 81.2695 39.8948L79.9141 40.8304C84.7693 47.8606 92.8846 55.1038 99.7334 60.5618C103.167 63.2982 106.3 65.5994 108.574 67.2168C109.712 68.0256 110.635 68.6637 111.275 69.1003C111.595 69.3184 111.844 69.4862 112.014 69.5998C112.098 69.6567 112.163 69.6998 112.207 69.729C112.229 69.7436 112.246 69.7546 112.257 69.762C112.263 69.7658 112.267 69.7686 112.27 69.7706C112.271 69.7716 112.273 69.7724 112.273 69.7729C112.274 69.7731 112.274 69.7734 112.274 69.7734C112.275 69.7736 112.275 69.7737 112.728 69.0863ZM28.3907 2.65231C24.3009 4.00587 16.7516 7.54456 12.3419 14.3008L13.7213 15.2016C17.833 8.89977 24.9645 5.5208 28.9082 4.215L28.3907 2.65231ZM2.75685 60.3639C1.51216 61.2032 0.822376 62.0043 0.442564 62.6448C0.253317 62.9641 0.144282 63.2383 0.0818585 63.4492C0.0507291 63.5544 0.0314585 63.6432 0.019435 63.713C0.0135056 63.7479 0.00938776 63.7781 0.00658776 63.8031C0.0051054 63.8156 0.00411718 63.827 0.00312895 63.8369C0.00279954 63.8418 0.00247035 63.8466 0.00214094 63.8508C0.00197624 63.853 0.00181086 63.855 0.00164615 63.8571C0.00164615 63.8581 0.0014828 63.8591 0.0014828 63.8599C0.0014828 63.8604 0.0014828 63.8612 0.0014828 63.8614C0.00131809 63.862 0.00131767 63.8627 0.823529 63.9105C1.64558 63.9582 1.64558 63.9589 1.64558 63.9595C1.64558 63.9599 1.64541 63.9605 1.64541 63.9608C1.64541 63.9618 1.64541 63.9627 1.64525 63.9635C1.64525 63.9651 1.64508 63.9668 1.64492 63.9682C1.64475 63.9714 1.64459 63.974 1.64426 63.9765C1.64393 63.9814 1.64343 63.9852 1.64327 63.9878C1.64261 63.9931 1.64245 63.9938 1.64311 63.99C1.64426 63.9826 1.64904 63.9575 1.66122 63.9164C1.68544 63.8345 1.74012 63.6858 1.85953 63.4845C2.09703 63.0838 2.60416 62.453 3.67772 61.7291L2.75685 60.3639ZM0 63.9105V76.5979H1.64706V63.9105H0ZM0.823529 76.5979C1.20186 77.329 1.20202 77.329 1.20202 77.329C1.20219 77.329 1.20235 77.3288 1.20252 77.3288C1.20268 77.3286 1.20318 77.3285 1.20367 77.3282C1.20466 77.3277 1.20614 77.3268 1.20812 77.3258C1.21191 77.3239 1.21751 77.3209 1.22492 77.3171C1.23941 77.3095 1.26082 77.2984 1.28882 77.2837C1.34466 77.2546 1.42635 77.2116 1.53094 77.1561C1.73995 77.0453 2.04087 76.884 2.40981 76.6823C3.14736 76.2789 4.15882 75.712 5.25362 75.0579C7.41275 73.7681 10.0008 72.0792 11.3958 70.6165L10.2037 69.4801C8.98438 70.7588 6.58428 72.3447 4.40885 73.6444C3.33645 74.285 2.34393 74.8414 1.61939 75.2377C1.25736 75.4356 0.962706 75.5936 0.758965 75.7016C0.657177 75.7554 0.578117 75.7971 0.524752 75.8249C0.49807 75.8389 0.477976 75.8495 0.46447 75.8564C0.457882 75.86 0.452776 75.8625 0.449482 75.8643C0.447835 75.8651 0.446682 75.8658 0.446023 75.8661C0.445529 75.8662 0.445365 75.8664 0.4452 75.8664C0.445035 75.8666 0.445035 75.8666 0.445035 75.8666C0.445035 75.8666 0.445035 75.8666 0.823529 76.5979ZM21.1927 36.8635C20.7635 30.7922 21.1283 26.2194 23.4928 21.7553L22.0373 20.9846C19.46 25.8505 19.1121 30.7906 19.5498 36.9787L21.1927 36.8635ZM23.4928 21.7553C24.5906 19.6821 26.9124 17.9795 30.3174 16.8532C33.7099 15.7301 38.0848 15.2131 43.1202 15.4436L43.1956 13.7986C38.0196 13.5615 33.4333 14.0868 29.7999 15.2888C26.1792 16.4876 23.4103 18.3928 22.0373 20.9846L23.4928 21.7553ZM64.5105 40.9482C66.0527 43.5598 67.256 45.5979 68.4595 47.636C69.6628 49.6739 70.8664 51.712 72.4085 54.3237L73.8269 53.4866C72.2846 50.8748 71.0813 48.8369 69.8778 46.7988C68.6744 44.7607 67.4709 42.7228 65.9288 40.111L64.5105 40.9482ZM73.1177 53.9051C72.4823 54.4288 72.4823 54.4289 72.4823 54.4289C72.4825 54.4291 72.4825 54.4293 72.4826 54.4293C72.4829 54.4296 72.4833 54.4301 72.4838 54.4308C72.4848 54.4319 72.4861 54.4336 72.4879 54.4359C72.4917 54.4403 72.4971 54.4469 72.5044 54.4558C72.5188 54.4732 72.5404 54.4993 72.5686 54.5332C72.6249 54.6012 72.7081 54.7015 72.8158 54.8306C73.0313 55.0891 73.3447 55.4636 73.7375 55.9289C74.5235 56.8594 75.6278 58.1539 76.9027 59.6099C79.4475 62.5164 82.6891 66.0869 85.4339 68.6886L86.5671 67.4936C83.8806 64.9472 80.6807 61.4246 78.1419 58.5252C76.875 57.0783 75.7771 55.7916 74.996 54.8666C74.6057 54.4042 74.2945 54.0324 74.0811 53.7765C73.9745 53.6484 73.8923 53.5495 73.8368 53.4826C73.8092 53.4492 73.7881 53.4238 73.7741 53.4067C73.767 53.3983 73.7617 53.3919 73.7583 53.3876C73.7564 53.3856 73.7553 53.384 73.7543 53.383C73.754 53.3825 73.7536 53.382 73.7535 53.3818C73.7533 53.3817 73.7533 53.3817 73.7532 53.3815C73.7532 53.3815 73.7532 53.3815 73.1177 53.9051ZM111.92 68.9254L108.614 85.5167L110.229 85.8385L113.536 69.2471L111.92 68.9254ZM108.614 85.5167L107.197 92.6273L108.812 92.9491L110.229 85.8385L108.614 85.5167ZM85.4339 68.6886C89.6292 72.6651 95.5245 77.0896 100.348 80.5067C102.764 82.2186 104.92 83.6835 106.472 84.7207C107.248 85.2394 107.873 85.6512 108.305 85.9336C108.52 86.0748 108.688 86.1838 108.802 86.2574C108.858 86.2943 108.902 86.3222 108.931 86.3412C108.946 86.3507 108.957 86.3578 108.964 86.3628C108.968 86.3651 108.971 86.3669 108.973 86.3682C108.974 86.3689 108.975 86.3693 108.975 86.3697C108.976 86.3698 108.976 86.37 108.976 86.37C108.976 86.3702 108.976 86.3702 109.421 85.6776C109.867 84.9852 109.867 84.985 109.867 84.985C109.867 84.985 109.866 84.9848 109.866 84.9847C109.866 84.9845 109.865 84.984 109.864 84.9835C109.863 84.9823 109.86 84.9807 109.857 84.9784C109.849 84.9738 109.839 84.967 109.824 84.9578C109.796 84.9395 109.754 84.912 109.698 84.8758C109.586 84.8032 109.42 84.6957 109.206 84.5557C108.779 84.2759 108.158 83.8671 107.387 83.3517C105.844 82.3208 103.701 80.8645 101.3 79.1632C96.4883 75.7543 90.6731 71.3855 86.5671 67.4936L85.4339 68.6886ZM194.65 41.9777L206.761 78.558L208.324 78.0407L196.213 41.4603L194.65 41.9777ZM73.8269 53.4866L65.9288 40.111L64.5105 40.9482L72.4085 54.3237L73.8269 53.4866ZM65.9288 40.111C63.1006 35.3205 57.5937 22.1966 56.8087 20.3161L55.2886 20.9501C56.0507 22.7762 61.6092 36.0352 64.5105 40.9482L65.9288 40.111ZM56.8087 20.3161C56.742 20.1564 56.6601 19.9687 56.5411 19.7743L55.1364 20.6339C55.1872 20.7179 55.23 20.8085 55.2886 20.9501L56.8087 20.3161ZM56.5411 19.7743C55.8047 18.5723 52.4862 14.2251 43.1956 13.7986L43.1202 15.4436C51.8138 15.8438 54.6576 19.8534 55.1364 20.6339L56.5411 19.7743ZM81.2695 39.8948C78.177 35.4177 75.5806 30.2192 73.2225 25.4949L71.7487 26.2293C74.0969 30.9338 76.7439 36.2394 79.9141 40.8304L81.2695 39.8948ZM73.2225 25.4949C71.8533 22.7515 70.5597 20.158 69.3066 17.9976C68.0624 15.852 66.8101 14.0456 65.4979 12.9292L64.4305 14.1823C65.5146 15.1044 66.6505 16.7 67.8816 18.8242C69.1037 20.9303 70.3727 23.4728 71.7487 26.2293L73.2225 25.4949ZM65.4979 12.9292C63.8479 11.5245 62.7972 10.1117 61.7899 8.75322L60.467 9.73462C61.4751 11.0931 62.6228 12.6443 64.4305 14.1823L65.4979 12.9292ZM61.7899 8.75322C60.1949 6.60267 58.6999 4.57067 55.1943 3.48387L54.7066 5.05644C57.665 5.97364 58.8891 7.60712 60.467 9.73462L61.7899 8.75322ZM55.1943 3.48387C52.5026 2.64901 50.7258 2.32956 48.9796 2.01505L48.6876 3.63537C50.4156 3.94659 52.1133 4.25287 54.7066 5.05644L55.1943 3.48387ZM48.9796 2.01505C47.2515 1.70383 45.5539 1.39755 42.9606 0.593979L42.4729 2.16655C45.1645 3.00141 46.9413 3.32086 48.6876 3.63537L48.9796 2.01505ZM42.9606 0.593979C38.1902 -0.884728 33.8354 0.709246 30.2805 1.98871L30.8389 3.53822C34.4604 2.23406 38.3027 0.873915 42.4729 2.16655L42.9606 0.593979ZM30.2805 1.98871C29.6245 2.22583 28.998 2.45142 28.3907 2.65231L28.9082 4.215C29.5395 4.00587 30.187 3.7737 30.8389 3.53822L30.2805 1.98871ZM12.3419 14.3008C9.15122 19.1914 8.7803 23.2603 8.31962 28.2069L9.9596 28.3601C10.4195 23.4234 10.7724 19.72 13.7213 15.2016L12.3419 14.3008ZM8.31962 28.2069C8.20597 29.4271 8.08739 30.6983 7.92136 32.0618L9.5564 32.261C9.72555 30.8712 9.84612 29.577 9.9596 28.3601L8.31962 28.2069ZM7.92136 32.0618C7.50548 35.4753 8.00586 38.3466 8.46424 40.9991L10.0872 40.7188C9.62722 38.0566 9.17313 35.4045 9.5564 32.261L7.92136 32.0618ZM8.46424 40.9991C9.07019 44.5063 9.59857 47.628 8.17337 51.486L9.71847 52.0564C11.3122 47.7425 10.6922 44.2198 10.0872 40.7188L8.46424 40.9991ZM8.17337 51.486C8.01393 51.9174 7.86339 52.3359 7.71845 52.7388L9.26833 53.2962C9.4136 52.8924 9.56183 52.4804 9.71847 52.0564L8.17337 51.486ZM7.71845 52.7388C6.50621 56.1084 5.66358 58.404 2.75685 60.3639L3.67772 61.7291C7.07543 59.4381 8.06103 56.6521 9.26833 53.2962L7.71845 52.7388ZM11.3958 70.6165C11.832 70.1591 12.4108 69.6417 13.1058 69.0214L12.009 67.793C11.3306 68.3984 10.6955 68.9644 10.2037 69.4801L11.3958 70.6165ZM13.1058 69.0214C16.279 66.1896 21.4424 61.6124 21.8135 53.7057L20.1682 53.6285C19.8326 60.7803 15.2004 64.9451 12.009 67.793L13.1058 69.0214ZM21.8135 53.7057C22.0724 48.1889 21.8276 45.0764 21.4732 40.5676L19.8311 40.6966C20.1842 45.1883 20.4222 48.2177 20.1682 53.6285L21.8135 53.7057ZM21.4732 40.5676C21.3846 39.4402 21.2891 38.2262 21.1927 36.8635L19.5498 36.9787C19.6466 38.3496 19.7426 39.5696 19.8311 40.6966L21.4732 40.5676ZM216.153 90.6387C216.694 87.9389 215.546 86.1406 214.37 84.2484L212.97 85.1177C214.174 87.0534 214.937 88.3271 214.538 90.3146L216.153 90.6387ZM214.37 84.2484C214.198 83.971 214.023 83.6914 213.848 83.4011L212.438 84.2504C212.62 84.5522 212.799 84.8417 212.97 85.1177L214.37 84.2484ZM55.1364 20.6339C55.1373 20.6356 55.1381 20.6372 55.1391 20.6388L56.5449 19.7809C56.5435 19.7793 56.5422 19.776 56.5411 19.7743L55.1364 20.6339ZM211.561 131.449C211.312 131.532 211.116 131.605 210.979 131.674C210.941 131.692 210.892 131.719 210.842 131.753C210.803 131.779 210.704 131.848 210.618 131.966C210.53 132.086 210.352 132.412 210.525 132.803C210.665 133.119 210.936 133.225 210.997 133.249C211.157 133.309 211.307 133.31 211.335 133.31C211.396 133.312 211.455 133.309 211.5 133.306C211.589 133.301 211.678 133.29 211.717 133.286L211.531 131.65C211.488 131.655 211.439 131.66 211.396 131.663C211.373 131.664 211.368 131.664 211.374 131.664C211.378 131.664 211.394 131.665 211.419 131.668C211.437 131.67 211.501 131.679 211.584 131.709C211.631 131.728 211.893 131.828 212.03 132.135C212.2 132.518 212.023 132.835 211.944 132.943C211.865 133.05 211.781 133.105 211.765 133.116C211.75 133.127 211.738 133.134 211.732 133.137C211.725 133.141 211.72 133.143 211.72 133.144C211.719 133.144 211.727 133.141 211.743 133.134C211.76 133.126 211.783 133.117 211.814 133.105C211.875 133.082 211.962 133.051 212.078 133.013L211.561 131.449ZM211.717 133.286C211.722 133.286 211.724 133.285 211.725 133.285C211.725 133.285 211.725 133.285 211.725 133.285H211.724C211.724 133.286 211.722 133.286 211.722 133.286C211.72 133.286 211.72 133.286 211.72 133.286C211.72 133.286 211.72 133.286 211.659 132.465C211.597 131.644 211.597 131.644 211.597 131.644H211.595C211.595 131.644 211.595 131.644 211.595 131.644C211.594 131.644 211.594 131.644 211.594 131.644C211.592 131.644 211.59 131.644 211.587 131.644C211.584 131.645 211.579 131.645 211.574 131.646C211.562 131.647 211.547 131.648 211.531 131.65L211.717 133.286ZM211.394 131.676C211.239 131.703 210.915 131.76 210.314 131.871L210.61 133.49C211.208 133.381 211.528 133.325 211.681 133.298L211.394 131.676ZM207.721 77.4958L183.292 72.0504L182.933 73.6576L207.364 79.1029L207.721 77.4958ZM211.659 132.465C211.463 131.665 211.463 131.665 211.463 131.665C211.463 131.665 211.463 131.665 211.463 131.665C211.463 131.665 211.463 131.665 211.463 131.665C211.465 131.665 211.465 131.665 211.465 131.664C211.465 131.664 211.467 131.664 211.467 131.664C211.468 131.664 211.468 131.664 211.47 131.663C211.472 131.663 211.473 131.662 211.475 131.662C211.478 131.661 211.482 131.661 211.482 131.66C211.485 131.66 211.485 131.66 211.482 131.661L211.775 133.281C211.793 133.278 211.808 133.275 211.821 133.272C211.827 133.271 211.834 133.269 211.839 133.268C211.842 133.267 211.844 133.267 211.847 133.266C211.849 133.266 211.849 133.266 211.85 133.265C211.85 133.265 211.852 133.265 211.852 133.265C211.852 133.265 211.854 133.265 211.854 133.265C211.854 133.264 211.854 133.264 211.854 133.264C211.854 133.264 211.854 133.264 211.659 132.465ZM211.482 131.661C211.465 131.664 211.437 131.668 211.394 131.676L211.681 133.298C211.72 133.29 211.753 133.285 211.775 133.281L211.482 131.661ZM55.1391 20.6388C55.1869 20.7162 55.2316 20.8134 55.2886 20.9501L56.8087 20.3161C56.7446 20.1613 56.6608 19.9703 56.5449 19.7809L55.1391 20.6388Z" fill="black"/>
</g>
</g>
<defs>
<filter id="filter0_i_57_126" x="0" y="0" width="221.935" height="164.418" filterUnits="userSpaceOnUse" color-interpolation-filters="sRGB">
<feFlood flood-opacity="0" result="BackgroundImageFix"/>
<feBlend mode="normal" in="SourceGraphic" in2="BackgroundImageFix" result="shape"/>
<feColorMatrix in="SourceAlpha" type="matrix" values="0 0 0 0 0 0 0 0 0 0 0 0 0 0 0 0 0 0 127 0" result="hardAlpha"/>
<feOffset dy="4"/>
<feGaussianBlur stdDeviation="2"/>
<feComposite in2="hardAlpha" operator="arithmetic" k2="-1" k3="1"/>
<feColorMatrix type="matrix" values="0 0 0 0 0 0 0 0 0 0 0 0 0 0 0 0 0 0 0.25 0"/>
<feBlend mode="normal" in2="shape" result="effect1_innerShadow_57_126"/>
</filter>
<filter id="filter1_i_57_126" x="0" y="0" width="221.935" height="164.418" filterUnits="userSpaceOnUse" color-interpolation-filters="sRGB">
<feFlood flood-opacity="0" result="BackgroundImageFix"/>
<feBlend mode="normal" in="SourceGraphic" in2="BackgroundImageFix" result="shape"/>
<feColorMatrix in="SourceAlpha" type="matrix" values="0 0 0 0 0 0 0 0 0 0 0 0 0 0 0 0 0 0 127 0" result="hardAlpha"/>
<feOffset dy="4"/>
<feGaussianBlur stdDeviation="2"/>
<feComposite in2="hardAlpha" operator="arithmetic" k2="-1" k3="1"/>
<feColorMatrix type="matrix" values="0 0 0 0 0 0 0 0 0 0 0 0 0 0 0 0 0 0 0.25 0"/>
<feBlend mode="normal" in2="shape" result="effect1_innerShadow_57_126"/>
</filter>
</defs>
</svg>
